<?xml version="1.0" encoding="utf-8"?>
<!-- Generator: Adobe Illustrator 24.3.0, SVG Export Plug-In . SVG Version: 6.00 Build 0)  -->
<svg version="1.1" id="Layer_1" xmlns="http://www.w3.org/2000/svg" xmlns:xlink="http://www.w3.org/1999/xlink" x="0px" y="0px"
	 viewBox="0 0 1600 1600" style="enable-background:new 0 0 1600 1600;" xml:space="preserve">
<style type="text/css">
	.st0{fill:#010F12;}
	.st1{fill:url(#SVGID_1_);}
	.st2{fill:url(#SVGID_2_);}
	.st3{fill:url(#SVGID_3_);}
	.st4{fill:url(#SVGID_4_);}
	.st5{fill:url(#SVGID_5_);}
	.st6{fill:url(#SVGID_6_);}
	.st7{fill:url(#SVGID_7_);}
	.st8{fill:url(#SVGID_8_);}
	.st9{fill:url(#SVGID_9_);}
	.st10{fill:url(#SVGID_10_);}
	.st11{fill:url(#SVGID_11_);}
	.st12{fill:url(#SVGID_12_);}
	.st13{fill:url(#SVGID_13_);}
	.st14{fill:url(#SVGID_14_);}
	.st15{fill:url(#SVGID_15_);}
	.st16{fill:url(#SVGID_16_);}
	.st17{fill:url(#SVGID_17_);}
	.st18{fill:url(#SVGID_18_);}
	.st19{fill:url(#SVGID_19_);}
	.st20{fill:url(#SVGID_20_);}
	.st21{fill:url(#SVGID_21_);}
	.st22{fill:url(#SVGID_22_);}
	.st23{fill:url(#SVGID_23_);}
	.st24{fill:url(#SVGID_24_);}
	.st25{fill:url(#SVGID_25_);}
	.st26{fill:url(#SVGID_26_);}
	.st27{fill:url(#SVGID_27_);}
	.st28{fill:url(#SVGID_28_);}
	.st29{fill:url(#SVGID_29_);}
	.st30{fill:url(#SVGID_30_);}
	.st31{fill:url(#SVGID_31_);}
	.st32{fill:url(#SVGID_32_);}
	.st33{fill:url(#SVGID_33_);}
	.st34{fill:url(#SVGID_34_);}
	.st35{fill:url(#SVGID_35_);}
	.st36{fill:url(#SVGID_36_);}
	.st37{fill:url(#SVGID_37_);}
	.st38{fill:url(#SVGID_38_);}
	.st39{fill:url(#SVGID_39_);}
	.st40{fill:url(#SVGID_40_);}
	.st41{fill:url(#SVGID_41_);}
	.st42{fill:url(#SVGID_42_);}
	.st43{fill:url(#SVGID_43_);}
	.st44{fill:url(#SVGID_44_);}
	.st45{fill:url(#SVGID_45_);}
	.st46{fill:url(#SVGID_46_);}
	.st47{fill:url(#SVGID_47_);}
	.st48{fill:url(#SVGID_48_);}
	.st49{fill:#FFFFFF;}
</style>
<rect class="st0" width="1600" height="1600"/>
<g>
	<linearGradient id="SVGID_1_" gradientUnits="userSpaceOnUse" x1="659.55" y1="721" x2="659.55" y2="519">
		<stop  offset="0.1062" style="stop-color:#F3587D"/>
		<stop  offset="0.3017" style="stop-color:#FFFFFF"/>
		<stop  offset="0.4162" style="stop-color:#FFFFFF"/>
		<stop  offset="0.4699" style="stop-color:#D5FAF1"/>
		<stop  offset="0.5489" style="stop-color:#9EF4DF"/>
		<stop  offset="0.6285" style="stop-color:#6EEECF"/>
		<stop  offset="0.707" style="stop-color:#47EAC3"/>
		<stop  offset="0.7841" style="stop-color:#29E6B9"/>
		<stop  offset="0.8595" style="stop-color:#13E4B2"/>
		<stop  offset="0.9324" style="stop-color:#06E3AD"/>
		<stop  offset="1" style="stop-color:#02E2AC"/>
	</linearGradient>
	<path class="st1" d="M795.3,519v138.3c-85.9,0-170.8,18.3-249,53.6L523.8,721c35.5-130.9,140.7-202,264.9-202H795.3z"/>
	<linearGradient id="SVGID_2_" gradientUnits="userSpaceOnUse" x1="659.4869" y1="722.1" x2="659.4869" y2="517.8">
		<stop  offset="0" style="stop-color:#5DECCA"/>
		<stop  offset="0.384" style="stop-color:#5CA7C8"/>
		<stop  offset="1" style="stop-color:#5932C4"/>
	</linearGradient>
	<path class="st2" d="M523.8,722.1c-0.3,0-0.5-0.1-0.7-0.3c-0.3-0.3-0.5-0.7-0.4-1.2c17.1-63.1,51.6-115.2,99.6-150.7
		c46.2-34.1,103.8-52.1,166.4-52.1h6.5c0.3,0,0.6,0.1,0.8,0.3s0.3,0.5,0.3,0.8v138.3c0,0.3-0.1,0.6-0.3,0.8s-0.5,0.3-0.8,0.3l0,0
		l0,0c-86.3,0-169.9,18-248.5,53.5L524.3,722C524.1,722.1,524,722.1,523.8,722.1z M794.1,520.2h-5.4c-128.3,0-229,76.1-263.2,198.8
		l20.3-9.1c78.6-35.5,162.2-53.5,248.4-53.7L794.1,520.2L794.1,520.2z"/>
</g>
<g>
	<linearGradient id="SVGID_3_" gradientUnits="userSpaceOnUse" x1="723.05" y1="1030.8999" x2="723.05" y2="742.0999">
		<stop  offset="0" style="stop-color:#38225E"/>
		<stop  offset="0.1452" style="stop-color:#5932C4"/>
		<stop  offset="0.1655" style="stop-color:#613CC7"/>
		<stop  offset="0.1997" style="stop-color:#7757CF"/>
		<stop  offset="0.2439" style="stop-color:#9A82DB"/>
		<stop  offset="0.2957" style="stop-color:#CABEEC"/>
		<stop  offset="0.3464" style="stop-color:#FFFFFF"/>
		<stop  offset="0.4112" style="stop-color:#E6FDF7"/>
		<stop  offset="0.5536" style="stop-color:#B5F9E8"/>
		<stop  offset="0.6882" style="stop-color:#8EF5DC"/>
		<stop  offset="0.8115" style="stop-color:#72F3D4"/>
		<stop  offset="0.9193" style="stop-color:#61F2CF"/>
		<stop  offset="1" style="stop-color:#5BF1CD"/>
	</linearGradient>
	<path class="st3" d="M795.3,742.1v288.8c-79.8,0-144.4-64.6-144.5-144.3c0-79.8,64.6-144.4,144.3-144.5
		C795.2,742.1,795.2,742.1,795.3,742.1z"/>
	<linearGradient id="SVGID_4_" gradientUnits="userSpaceOnUse" x1="723.05" y1="1032.1" x2="723.05" y2="741">
		<stop  offset="0" style="stop-color:#5DECCA"/>
		<stop  offset="0.384" style="stop-color:#5CA7C8"/>
		<stop  offset="1" style="stop-color:#5932C4"/>
	</linearGradient>
	<path class="st4" d="M795.2,1032.1c-80.2,0-145.5-65.2-145.5-145.5c0-80.2,65.2-145.6,145.5-145.6h0.1c0.6,0,1.1,0.5,1.1,1.1v288.8
		C796.4,1031.6,795.9,1032.1,795.2,1032.1z M794.1,743.3c-78.5,0.6-142.2,64.7-142.2,143.3s63.7,142.6,142.2,143.2V743.3z"/>
</g>
<g>
	<linearGradient id="SVGID_5_" gradientUnits="userSpaceOnUse" x1="706.25" y1="1064.6" x2="706.25" y2="708.4">
		<stop  offset="0.1062" style="stop-color:#F3587D"/>
		<stop  offset="0.1258" style="stop-color:#F46587"/>
		<stop  offset="0.162" style="stop-color:#F687A1"/>
		<stop  offset="0.2107" style="stop-color:#FABDCC"/>
		<stop  offset="0.2626" style="stop-color:#FFFFFF"/>
		<stop  offset="0.3938" style="stop-color:#FFFFFF"/>
		<stop  offset="0.4392" style="stop-color:#D1FAF0"/>
		<stop  offset="0.4934" style="stop-color:#A1F4E0"/>
		<stop  offset="0.5509" style="stop-color:#76EFD2"/>
		<stop  offset="0.6105" style="stop-color:#52EBC6"/>
		<stop  offset="0.6729" style="stop-color:#35E8BD"/>
		<stop  offset="0.7389" style="stop-color:#1EE5B5"/>
		<stop  offset="0.8103" style="stop-color:#0EE3B0"/>
		<stop  offset="0.8908" style="stop-color:#05E2AD"/>
		<stop  offset="1" style="stop-color:#02E2AC"/>
	</linearGradient>
	<path class="st5" d="M795.3,729.4v-21c-98.4,0-178.1,79.7-178.1,178.1l0,0c0,98.3,79.7,178.1,178.1,178.1v-21
		c-86.8,0-157.1-70.3-157.1-157.1S708.5,729.4,795.3,729.4L795.3,729.4z"/>
	<linearGradient id="SVGID_6_" gradientUnits="userSpaceOnUse" x1="706.25" y1="1065.8" x2="706.25" y2="707.2001">
		<stop  offset="0" style="stop-color:#5932C4"/>
		<stop  offset="0.616" style="stop-color:#5CA7C8"/>
		<stop  offset="1" style="stop-color:#5DECCA"/>
	</linearGradient>
	<path class="st6" d="M795.3,1065.8c-98.9,0-179.3-80.4-179.3-179.3s80.4-179.3,179.3-179.3c0.7,0,1.2,0.5,1.2,1.1v21
		c0,0.6-0.5,1.1-1.1,1.1c-86,0-156,70-156,156s70,156,156,156c0.6,0,1.1,0.5,1.1,1.1v21C796.4,1065.3,795.9,1065.8,795.3,1065.8z
		 M794.1,709.5c-97.1,0.6-175.9,79.7-175.9,177s78.8,176.4,175.9,177.1v-18.8c-86.7-0.6-157.1-71.4-157.1-158.2
		c0-86.9,70.4-157.6,157.1-158.2V709.5z"/>
</g>
<g>
	<linearGradient id="SVGID_7_" gradientUnits="userSpaceOnUse" x1="715.65" y1="740.3" x2="715.65" y2="673.9">
		<stop  offset="0" style="stop-color:#FFCC00"/>
		<stop  offset="6.730000e-02" style="stop-color:#FFCD04"/>
		<stop  offset="0.1399" style="stop-color:#FFCF11"/>
		<stop  offset="0.215" style="stop-color:#FFD427"/>
		<stop  offset="0.2918" style="stop-color:#FFDA45"/>
		<stop  offset="0.37" style="stop-color:#FFE26C"/>
		<stop  offset="0.4492" style="stop-color:#FFEB9C"/>
		<stop  offset="0.5278" style="stop-color:#FFF6D3"/>
		<stop  offset="0.5838" style="stop-color:#FFFFFF"/>
		<stop  offset="0.6983" style="stop-color:#FFFFFF"/>
		<stop  offset="0.8939" style="stop-color:#F3587D"/>
	</linearGradient>
	<path class="st7" d="M795.3,673.9v9.9c-52.3-0.1-102.7,20.2-140.4,56.5L636,720.7c15.1-14.6,32.2-27,50.7-36.9
		C722.5,677.2,758.9,673.9,795.3,673.9z"/>
	<linearGradient id="SVGID_8_" gradientUnits="userSpaceOnUse" x1="715.55" y1="741.5" x2="715.55" y2="672.7881">
		<stop  offset="0" style="stop-color:#5932C4"/>
		<stop  offset="0.616" style="stop-color:#5CA7C8"/>
		<stop  offset="1" style="stop-color:#5DECCA"/>
	</linearGradient>
	<path class="st8" d="M654.9,741.5L654.9,741.5c-0.3,0-0.6-0.1-0.8-0.3l-18.9-19.6c-0.4-0.5-0.4-1.2,0-1.6
		c15.2-14.6,32.3-27.1,50.9-37.1c0.1-0.1,0.2-0.1,0.3-0.1c35.7-6.6,72.2-9.9,108.4-9.9c0.1,0,0.2,0,0.3,0c0.6,0,1.1,0.5,1.1,1.1v9.9
		c0,0.3-0.1,0.6-0.3,0.8s-0.5,0.3-0.8,0.3c-0.1,0-0.2,0-0.3,0c-52.2,0-101.7,20-139.3,56.2C655.5,741.4,655.2,741.5,654.9,741.5z
		 M637.7,720.7l17.3,18c37.7-36,87.1-55.8,139.2-56.1V675c-35.8,0.1-71.8,3.4-107,9.9C669.1,694.6,652.5,706.6,637.7,720.7z"/>
</g>
<g>
	<linearGradient id="SVGID_9_" gradientUnits="userSpaceOnUse" x1="679.65" y1="1239.7001" x2="679.65" y2="1092.2001">
		<stop  offset="0" style="stop-color:#FFCC00"/>
		<stop  offset="0.6983" style="stop-color:#F3587D"/>
		<stop  offset="1" style="stop-color:#BE3250"/>
	</linearGradient>
	<path class="st9" d="M795.3,1172.1v12.8h-55.8c-9.7,0-18.7,4.8-24.1,12.9l-27.8,41.9c-56.7-5.3-103.2-47.1-114.5-102.8l-9.1-44.7
		h23.4l5.6,27.3c8.6,41.8,45.4,71.9,88.1,71.9c12.3-12.3,29-19.2,46.4-19.2L795.3,1172.1z"/>
	<linearGradient id="SVGID_10_" gradientUnits="userSpaceOnUse" x1="679.5304" y1="1240.8" x2="679.5304" y2="1091.1">
		<stop  offset="0" style="stop-color:#5DECCA"/>
		<stop  offset="0.384" style="stop-color:#5CA7C8"/>
		<stop  offset="1" style="stop-color:#5932C4"/>
	</linearGradient>
	<path class="st10" d="M687.6,1240.8L687.6,1240.8c-28.1-2.6-54-14-75-32.8s-35-43.3-40.7-70.9l-9.1-44.7c-0.1-0.3,0-0.7,0.2-0.9
		s0.5-0.4,0.9-0.4h23.4c0.5,0,1,0.4,1.1,0.9l5.6,27.3c8.4,40.9,44.8,70.7,86.5,71c12.5-12.4,29.1-19.2,46.8-19.2l0,0h67.9
		c0.6,0,1.1,0.5,1.1,1.1v12.8c0,0.6-0.5,1.1-1.1,1.1h-55.8c-9.3,0-18,4.6-23.1,12.4l-27.8,41.9
		C688.3,1240.6,688,1240.8,687.6,1240.8z M565.3,1093.3l8.9,43.4c11.3,55.4,56.6,96.3,112.9,101.9l27.4-41.3
		c5.6-8.4,14.9-13.4,25-13.4h54.7v-10.5h-66.8l0,0c-17.2,0-33.4,6.7-45.5,18.9c-0.2,0.2-0.5,0.3-0.8,0.3l0,0
		c-20.9,0-41.4-7.3-57.6-20.5c-16.2-13.2-27.4-31.8-31.7-52.3l-5.4-26.4L565.3,1093.3L565.3,1093.3z"/>
</g>
<g>
	<linearGradient id="SVGID_11_" gradientUnits="userSpaceOnUse" x1="565.3484" y1="818" x2="565.3484" y2="701.1">
		<stop  offset="0" style="stop-color:#BE3250"/>
		<stop  offset="0.3017" style="stop-color:#F3587D"/>
		<stop  offset="1" style="stop-color:#FFCC00"/>
	</linearGradient>
	<path class="st11" d="M617.1,701.1c-24.5,35.4-42.2,75-52.3,116.9h-51.2v-2.4c-0.1-25.5,2.2-50.9,7-76l27.9-12.6
		C570.9,716.9,593.8,708.2,617.1,701.1z"/>
	<linearGradient id="SVGID_12_" gradientUnits="userSpaceOnUse" x1="565.411" y1="819.1" x2="565.411" y2="699.9639">
		<stop  offset="0" style="stop-color:#5932C4"/>
		<stop  offset="0.616" style="stop-color:#5CA7C8"/>
		<stop  offset="1" style="stop-color:#5DECCA"/>
	</linearGradient>
	<path class="st12" d="M564.9,819.1h-51.2c-0.6,0-1.1-0.5-1.1-1.1v-2.4c-0.1-25.5,2.2-51.1,7-76.2c0.1-0.4,0.3-0.7,0.6-0.8
		l27.9-12.6c22.2-10.1,45.3-18.8,68.7-26c0.5-0.1,1,0,1.2,0.4c0.3,0.4,0.3,0.9,0,1.3c-24.5,35.4-42,74.6-52.1,116.5
		C565.9,818.7,565.4,819.1,564.9,819.1z M514.8,816.8H564c9.9-40.8,26.9-79,50.4-113.7c-22.2,6.9-44.1,15.3-65.3,24.9l-27.4,12.3
		c-4.7,24.7-7,50-6.9,75.2V816.8z"/>
</g>
<g>
	<linearGradient id="SVGID_13_" gradientUnits="userSpaceOnUse" x1="549.35" y1="1080.9" x2="549.35" y2="891.2">
		<stop  offset="0" style="stop-color:#02E2AC"/>
		<stop  offset="7.599000e-02" style="stop-color:#06E3AD"/>
		<stop  offset="0.158" style="stop-color:#13E4B2"/>
		<stop  offset="0.2427" style="stop-color:#29E6B9"/>
		<stop  offset="0.3295" style="stop-color:#47EAC3"/>
		<stop  offset="0.4177" style="stop-color:#6EEECF"/>
		<stop  offset="0.5072" style="stop-color:#9EF4DF"/>
		<stop  offset="0.596" style="stop-color:#D5FAF1"/>
		<stop  offset="0.6564" style="stop-color:#FFFFFF"/>
		<stop  offset="0.7486" style="stop-color:#FFFFFF"/>
		<stop  offset="0.8939" style="stop-color:#FFCC00"/>
	</linearGradient>
	<polygon class="st13" points="585,1080.9 561.6,1080.9 542.7,988.7 513.7,957.9 513.7,891.2 555.1,935 566.1,988.7 	"/>
	<linearGradient id="SVGID_14_" gradientUnits="userSpaceOnUse" x1="549.3697" y1="1082.1" x2="549.3697" y2="890">
		<stop  offset="0" style="stop-color:#5DECCA"/>
		<stop  offset="0.384" style="stop-color:#5CA7C8"/>
		<stop  offset="1" style="stop-color:#5932C4"/>
	</linearGradient>
	<path class="st14" d="M585,1082.1h-23.4c-0.5,0-1-0.4-1.1-0.9l-18.8-91.9l-28.8-30.5c-0.2-0.2-0.3-0.5-0.3-0.8v-66.8
		c0-0.5,0.3-0.9,0.7-1.1c0.4-0.2,0.9-0.1,1.2,0.3l41.4,43.8c0.1,0.2,0.2,0.3,0.3,0.5l11,53.7l18.9,92.2c0.1,0.3,0,0.7-0.2,0.9
		S585.3,1082.1,585,1082.1z M562.5,1079.8h21.1L565,988.9l-11-53.4L514.8,894v63.5l28.7,30.4c0.1,0.2,0.2,0.3,0.3,0.6L562.5,1079.8z
		"/>
</g>
<g>
	<linearGradient id="SVGID_15_" gradientUnits="userSpaceOnUse" x1="748.95" y1="1240.2688" x2="748.95" y2="1196.1215">
		<stop  offset="0" style="stop-color:#38225E"/>
		<stop  offset="0.1452" style="stop-color:#5932C4"/>
		<stop  offset="0.1739" style="stop-color:#613CC7"/>
		<stop  offset="0.2224" style="stop-color:#7757CF"/>
		<stop  offset="0.285" style="stop-color:#9A82DB"/>
		<stop  offset="0.3583" style="stop-color:#CABEEC"/>
		<stop  offset="0.4302" style="stop-color:#FFFFFF"/>
		<stop  offset="0.5762" style="stop-color:#D2FBF1"/>
		<stop  offset="0.8673" style="stop-color:#7DF4D7"/>
		<stop  offset="1" style="stop-color:#5BF1CD"/>
	</linearGradient>
	<path class="st15" d="M795.3,1196.1v44.1h-92.7l20.7-31.2c5.4-8.1,14.4-12.9,24.1-12.9H795.3z"/>
	<linearGradient id="SVGID_16_" gradientUnits="userSpaceOnUse" x1="748.9303" y1="1241.4" x2="748.9303" y2="1195.0001">
		<stop  offset="0" style="stop-color:#5DECCA"/>
		<stop  offset="0.384" style="stop-color:#5CA7C8"/>
		<stop  offset="1" style="stop-color:#5932C4"/>
	</linearGradient>
	<path class="st16" d="M795.3,1241.4h-92.7c-0.4,0-0.8-0.2-1-0.6s-0.2-0.8,0.1-1.2l20.7-31.2c5.6-8.4,14.9-13.4,25-13.4h47.9
		c0.6,0,1.1,0.5,1.1,1.1v44.1C796.4,1240.9,795.9,1241.4,795.3,1241.4z M704.7,1239.1h89.5v-41.9h-46.8c-9.3,0-18,4.6-23.1,12.4
		L704.7,1239.1z"/>
</g>
<g>
	<linearGradient id="SVGID_17_" gradientUnits="userSpaceOnUse" x1="717.3" y1="1170.6001" x2="717.3" y2="1086.8">
		<stop  offset="0" style="stop-color:#BE3250"/>
		<stop  offset="0.3017" style="stop-color:#F3587D"/>
		<stop  offset="1" style="stop-color:#FFCC00"/>
	</linearGradient>
	<path class="st17" d="M795.3,1086.8v65.8h-81c-17,0-33.3,6.4-45.6,18c-7.7-2.4-15.1-5.7-22-10h-0.1c-2.5-1.6-5-3.3-7.3-5.2
		l45.6-68.6L795.3,1086.8L795.3,1086.8z"/>
	<linearGradient id="SVGID_18_" gradientUnits="userSpaceOnUse" x1="717.3766" y1="1171.8" x2="717.3766" y2="1085.8002">
		<stop  offset="0" style="stop-color:#5DECCA"/>
		<stop  offset="0.384" style="stop-color:#5CA7C8"/>
		<stop  offset="1" style="stop-color:#5932C4"/>
	</linearGradient>
	<path class="st18" d="M668.7,1171.8c-0.1,0-0.2,0-0.3,0c-7.8-2.4-15.2-5.7-22.1-10.1c-0.1,0-0.2-0.1-0.2-0.1
		c-2.5-1.6-5-3.3-7.4-5.2c-0.5-0.4-0.6-1-0.2-1.5l45.6-68.6c0.2-0.3,0.6-0.5,0.9-0.5h110.4c0.6,0,1.1,0.5,1.1,1.1v65.8
		c0,0.6-0.5,1.1-1.1,1.1h-81h-0.1c-16.7,0-32.6,6.3-44.8,17.7C669.2,1171.7,668.9,1171.8,668.7,1171.8z M647,1159.5
		c0.1,0,0.2,0.1,0.2,0.1c6.6,4.1,13.7,7.4,21.1,9.7c12.5-11.5,28.8-17.9,45.8-17.9h0.1H794V1088H685.5l-44.7,67.2
		C642.8,1156.7,644.9,1158.2,647,1159.5z"/>
</g>
<g>
	<linearGradient id="SVGID_19_" gradientUnits="userSpaceOnUse" x1="488" y1="817.9365" x2="488" y2="797.2482">
		<stop  offset="0.1062" style="stop-color:#F3587D"/>
		<stop  offset="0.3017" style="stop-color:#FFFFFF"/>
		<stop  offset="0.4162" style="stop-color:#FFFFFF"/>
		<stop  offset="0.4699" style="stop-color:#D5FAF1"/>
		<stop  offset="0.5489" style="stop-color:#9EF4DF"/>
		<stop  offset="0.6285" style="stop-color:#6EEECF"/>
		<stop  offset="0.707" style="stop-color:#47EAC3"/>
		<stop  offset="0.7841" style="stop-color:#29E6B9"/>
		<stop  offset="0.8595" style="stop-color:#13E4B2"/>
		<stop  offset="0.9324" style="stop-color:#06E3AD"/>
		<stop  offset="1" style="stop-color:#02E2AC"/>
	</linearGradient>
	<path class="st19" d="M503.8,797.2v0.4c-0.2,5.7-0.3,11.5-0.3,17.4v2.8h-31.3l6.2-8.2C484.5,801.9,493.9,797.2,503.8,797.2
		L503.8,797.2z"/>
	<linearGradient id="SVGID_20_" gradientUnits="userSpaceOnUse" x1="487.9955" y1="819.0684" x2="487.9955" y2="796.1162">
		<stop  offset="0" style="stop-color:#5932C4"/>
		<stop  offset="0.616" style="stop-color:#5CA7C8"/>
		<stop  offset="1" style="stop-color:#5DECCA"/>
	</linearGradient>
	<path class="st20" d="M503.5,819.1h-31.3c-0.4,0-0.8-0.2-1-0.6c-0.2-0.4-0.1-0.8,0.1-1.2l6.2-8.2c6.2-8.1,16-13,26.3-13
		c0.6,0,1.1,0.5,1.1,1.1v0.4c-0.2,5.7-0.3,11.6-0.3,17.4v2.8C504.6,818.6,504.1,819.1,503.5,819.1z M474.5,816.8h27.9v-1.7
		c0-5.6,0.1-11.2,0.3-16.7c-9.1,0.4-17.7,4.8-23.3,12.1L474.5,816.8z"/>
</g>
<g>
	<linearGradient id="SVGID_21_" gradientUnits="userSpaceOnUse" x1="442.9" y1="882.9137" x2="442.9" y2="827.7061">
		<stop  offset="0" style="stop-color:#5BF1CD"/>
		<stop  offset="3.710000e-02" style="stop-color:#6BF2D2"/>
		<stop  offset="0.1976" style="stop-color:#AAF8E5"/>
		<stop  offset="0.3333" style="stop-color:#D8FCF3"/>
		<stop  offset="0.4373" style="stop-color:#F4FEFC"/>
		<stop  offset="0.4972" style="stop-color:#FFFFFF"/>
		<stop  offset="0.5874" style="stop-color:#CABEEC"/>
		<stop  offset="0.6794" style="stop-color:#9A82DB"/>
		<stop  offset="0.7579" style="stop-color:#7757CF"/>
		<stop  offset="0.8188" style="stop-color:#613CC7"/>
		<stop  offset="0.8547" style="stop-color:#5932C4"/>
		<stop  offset="1" style="stop-color:#38225E"/>
	</linearGradient>
	<path class="st21" d="M456.8,827.7h-9.6c-10.1,0-18.2,8.2-18.2,18.2l0,0v18.7c0,10.1,8.2,18.2,18.2,18.2h9.6V827.7z"/>
	<linearGradient id="SVGID_22_" gradientUnits="userSpaceOnUse" x1="442.85" y1="884" x2="442.85" y2="826.4999">
		<stop  offset="0" style="stop-color:#5DECCA"/>
		<stop  offset="0.384" style="stop-color:#5CA7C8"/>
		<stop  offset="1" style="stop-color:#5932C4"/>
	</linearGradient>
	<path class="st22" d="M456.8,884h-9.6c-10.7,0-19.4-8.7-19.4-19.4v-18.7c0-10.7,8.7-19.4,19.4-19.4h9.6c0.6,0,1.1,0.5,1.1,1.1v55.2
		C457.9,883.5,457.4,884,456.8,884z M447.1,828.8c-9.4,0-17.1,7.7-17.1,17.1v18.7c0,9.4,7.7,17.1,17.1,17.1h8.5v-52.9L447.1,828.8
		L447.1,828.8z"/>
</g>
<g>
	<linearGradient id="SVGID_23_" gradientUnits="userSpaceOnUse" x1="496.65" y1="987.6" x2="496.65" y2="827.7">
		<stop  offset="0" style="stop-color:#BE3250"/>
		<stop  offset="0.2598" style="stop-color:#FFFFFF"/>
		<stop  offset="0.514" style="stop-color:#FFCC00"/>
		<stop  offset="0.6238" style="stop-color:#FBA42C"/>
		<stop  offset="0.7324" style="stop-color:#F7834F"/>
		<stop  offset="0.8341" style="stop-color:#F56B68"/>
		<stop  offset="0.9261" style="stop-color:#F45D78"/>
		<stop  offset="1" style="stop-color:#F3587D"/>
	</linearGradient>
	<path class="st23" d="M526.6,987.6c-33.1,0-59.8-26.8-59.9-59.9v-100h37.2v135.8L526.6,987.6z"/>
	<linearGradient id="SVGID_24_" gradientUnits="userSpaceOnUse" x1="496.652" y1="988.7" x2="496.652" y2="826.6">
		<stop  offset="0" style="stop-color:#5DECCA"/>
		<stop  offset="0.384" style="stop-color:#5CA7C8"/>
		<stop  offset="1" style="stop-color:#5932C4"/>
	</linearGradient>
	<path class="st24" d="M526.6,988.7L526.6,988.7c-33.6,0-61-27.4-61-61v-100c0-0.6,0.5-1.1,1.1-1.1h37.2c0.6,0,1.1,0.5,1.1,1.1
		v135.4l22.4,23.7c0.3,0.3,0.4,0.8,0.2,1.2S527,988.7,526.6,988.7z M467.8,828.8v98.9c0,31.5,24.9,57.2,56,58.7L503,964.3
		c-0.2-0.2-0.3-0.5-0.3-0.8V828.8H467.8z"/>
</g>
<g>
	<linearGradient id="SVGID_25_" gradientUnits="userSpaceOnUse" x1="454.8" y1="817.9" x2="454.8" y2="514.5">
		<stop  offset="0.1062" style="stop-color:#F3587D"/>
		<stop  offset="0.3011" style="stop-color:#F35A7E"/>
		<stop  offset="0.3713" style="stop-color:#F46184"/>
		<stop  offset="0.4213" style="stop-color:#F46C8D"/>
		<stop  offset="0.4618" style="stop-color:#F67D9A"/>
		<stop  offset="0.4965" style="stop-color:#F793AB"/>
		<stop  offset="0.5272" style="stop-color:#F9AFC0"/>
		<stop  offset="0.555" style="stop-color:#FCCFDA"/>
		<stop  offset="0.5797" style="stop-color:#FEF3F6"/>
		<stop  offset="0.5866" style="stop-color:#FFFFFF"/>
		<stop  offset="0.7514" style="stop-color:#FFFFFF"/>
		<stop  offset="0.77" style="stop-color:#D1FAF0"/>
		<stop  offset="0.7922" style="stop-color:#A1F4E0"/>
		<stop  offset="0.8158" style="stop-color:#76EFD2"/>
		<stop  offset="0.8403" style="stop-color:#52EBC6"/>
		<stop  offset="0.8658" style="stop-color:#35E8BD"/>
		<stop  offset="0.8929" style="stop-color:#1EE5B5"/>
		<stop  offset="0.9222" style="stop-color:#0EE3B0"/>
		<stop  offset="0.9552" style="stop-color:#05E2AD"/>
		<stop  offset="1" style="stop-color:#02E2AC"/>
	</linearGradient>
	<path class="st25" d="M466.7,526.4V804l-9.9,13.9h-13.9V526.4c0-6.6,5.3-11.9,11.9-11.9l0,0C461.4,514.5,466.7,519.8,466.7,526.4z"
		/>
	<linearGradient id="SVGID_26_" gradientUnits="userSpaceOnUse" x1="454.9" y1="819.1" x2="454.9" y2="513.3">
		<stop  offset="0" style="stop-color:#5932C4"/>
		<stop  offset="0.616" style="stop-color:#5CA7C8"/>
		<stop  offset="1" style="stop-color:#5DECCA"/>
	</linearGradient>
	<path class="st26" d="M456.8,819.1h-13.9c-0.6,0-1.1-0.5-1.1-1.1V526.4c0-7.2,5.9-13.1,13.1-13.1s13.1,5.9,13.1,13.1V804
		c0,0.2-0.1,0.5-0.2,0.7l-9.9,13.9C457.5,818.9,457.1,819.1,456.8,819.1z M444,816.8h12.2l9.4-13.1V526.4c0-5.9-4.8-10.8-10.8-10.8
		s-10.8,4.8-10.8,10.8L444,816.8L444,816.8z M466.7,804.1L466.7,804.1L466.7,804.1z"/>
</g>
<g>
	<linearGradient id="SVGID_27_" gradientUnits="userSpaceOnUse" x1="875.1" y1="1239.6853" x2="875.1" y2="1172.1853">
		<stop  offset="0" style="stop-color:#38225E"/>
		<stop  offset="0.1452" style="stop-color:#5932C4"/>
		<stop  offset="0.1739" style="stop-color:#613CC7"/>
		<stop  offset="0.2224" style="stop-color:#7757CF"/>
		<stop  offset="0.285" style="stop-color:#9A82DB"/>
		<stop  offset="0.3583" style="stop-color:#CABEEC"/>
		<stop  offset="0.4302" style="stop-color:#FFFFFF"/>
		<stop  offset="0.5762" style="stop-color:#D2FBF1"/>
		<stop  offset="0.8673" style="stop-color:#7DF4D7"/>
		<stop  offset="1" style="stop-color:#5BF1CD"/>
	</linearGradient>
	<path class="st27" d="M804.7,1172.1H878c37.3,0,67.5,30.2,67.5,67.5l0,0l0,0l0,0H804.7l0,0V1172.1L804.7,1172.1z"/>
	<linearGradient id="SVGID_28_" gradientUnits="userSpaceOnUse" x1="875.15" y1="1240.8" x2="875.15" y2="1170.9866">
		<stop  offset="0" style="stop-color:#5DECCA"/>
		<stop  offset="0.384" style="stop-color:#5CA7C8"/>
		<stop  offset="1" style="stop-color:#5932C4"/>
	</linearGradient>
	<path class="st28" d="M945.5,1240.8H804.7c-0.6,0-1.1-0.5-1.1-1.1v-67.5c0-0.6,0.5-1.1,1.1-1.1H878c37.9,0,68.7,30.8,68.7,68.7
		C946.7,1240.3,946.2,1240.8,945.5,1240.8z M805.9,1238.6h138.5c-0.6-36.1-30.2-65.3-66.4-65.3h-72.1V1238.6z"/>
</g>
<g>
	<linearGradient id="SVGID_29_" gradientUnits="userSpaceOnUse" x1="945.55" y1="886.5" x2="945.55" y2="519.1">
		<stop  offset="0" style="stop-color:#400088"/>
		<stop  offset="0.6983" style="stop-color:#F3587D"/>
		<stop  offset="1" style="stop-color:#610000"/>
	</linearGradient>
	<path class="st29" d="M1086.3,702.2v184.3H1060V694.9c0-13.9-2.8-27.6-8.2-40.4c-14.2-33.2-44.7-49.7-75.2-49.7
		c-31.5,0-63,17.6-76.4,52.5h-95.4V620h49.4c24,0,43.4-19.4,43.4-43.4s-19.4-43.4-43.4-43.4h-49.4v-14.1h98.5
		C1004.3,519.1,1086.3,601.1,1086.3,702.2z"/>
	<linearGradient id="SVGID_30_" gradientUnits="userSpaceOnUse" x1="945.55" y1="887.7" x2="945.55" y2="518.0001">
		<stop  offset="0" style="stop-color:#5DECCA"/>
		<stop  offset="0.384" style="stop-color:#5CA7C8"/>
		<stop  offset="1" style="stop-color:#5932C4"/>
	</linearGradient>
	<path class="st30" d="M1086.3,887.7H1060c-0.6,0-1.1-0.5-1.1-1.1V694.9c0-13.8-2.7-27.2-8.1-39.9c-12.9-30.3-41.3-49-74.2-49
		c-34.2,0-63.1,19.8-75.4,51.8c-0.2,0.4-0.6,0.7-1.1,0.7h-95.4c-0.6,0-1.1-0.5-1.1-1.1V620c0-0.6,0.5-1.1,1.1-1.1h49.4
		c23.3,0,42.3-19,42.3-42.3s-19-42.3-42.3-42.3h-49.4c-0.6,0-1.1-0.5-1.1-1.1v-14.1c0-0.6,0.5-1.1,1.1-1.1h98.5
		c101.6,0,184.3,82.7,184.3,184.3v184.3C1087.4,887.2,1086.9,887.7,1086.3,887.7z M1061.1,885.4h24.1V702.2
		c0-100.4-81.7-182-182-182h-97.3v11.9h48.2c24.6,0,44.6,20,44.6,44.6s-20,44.6-44.6,44.6h-48.2v35h93.5
		c12.8-32.4,42.3-52.5,77.2-52.5c33.8,0,63,19.3,76.3,50.4c5.5,13,8.3,26.7,8.3,40.8v190.4H1061.1z"/>
</g>
<g>
	<linearGradient id="SVGID_31_" gradientUnits="userSpaceOnUse" x1="851.1" y1="1152.6" x2="851.1" y2="1064.7">
		<stop  offset="0" style="stop-color:#38225E"/>
		<stop  offset="0.1452" style="stop-color:#5932C4"/>
		<stop  offset="0.1812" style="stop-color:#613CC7"/>
		<stop  offset="0.2421" style="stop-color:#7757CF"/>
		<stop  offset="0.3206" style="stop-color:#9A82DB"/>
		<stop  offset="0.4126" style="stop-color:#CABEEC"/>
		<stop  offset="0.5028" style="stop-color:#FFFFFF"/>
		<stop  offset="0.5627" style="stop-color:#F4FEFC"/>
		<stop  offset="0.6667" style="stop-color:#D8FCF3"/>
		<stop  offset="0.8024" style="stop-color:#AAF8E5"/>
		<stop  offset="0.9629" style="stop-color:#6BF2D2"/>
		<stop  offset="1" style="stop-color:#5BF1CD"/>
	</linearGradient>
	<polygon class="st31" points="897.5,1064.7 897.5,1130.4 875.3,1152.6 804.7,1152.6 804.7,1086.8 875.3,1086.8 	"/>
	<linearGradient id="SVGID_32_" gradientUnits="userSpaceOnUse" x1="851.05" y1="1153.7" x2="851.05" y2="1063.5044">
		<stop  offset="0" style="stop-color:#5DECCA"/>
		<stop  offset="0.384" style="stop-color:#5CA7C8"/>
		<stop  offset="1" style="stop-color:#5932C4"/>
	</linearGradient>
	<path class="st32" d="M875.3,1153.7h-70.6c-0.6,0-1.1-0.5-1.1-1.1v-65.8c0-0.6,0.5-1.1,1.1-1.1h70.1l21.8-21.8
		c0.3-0.3,0.8-0.4,1.2-0.2c0.4,0.2,0.7,0.6,0.7,1v65.8c0,0.3-0.1,0.6-0.3,0.8l-22.2,22.2C875.9,1153.6,875.6,1153.7,875.3,1153.7z
		 M805.8,1151.5h69l21.5-21.5v-62.6l-20.2,20.2c-0.2,0.2-0.5,0.3-0.8,0.3h-69.5V1151.5z"/>
</g>
<g>
	<linearGradient id="SVGID_33_" gradientUnits="userSpaceOnUse" x1="949.9" y1="861" x2="949.9" y2="775.6">
		<stop  offset="0" style="stop-color:#D60B52"/>
		<stop  offset="0.2179" style="stop-color:#FFFFFF"/>
		<stop  offset="0.2709" style="stop-color:#F5D3D3"/>
		<stop  offset="0.3334" style="stop-color:#EAA7A7"/>
		<stop  offset="0.4005" style="stop-color:#E17F7F"/>
		<stop  offset="0.4713" style="stop-color:#D95E5E"/>
		<stop  offset="0.5468" style="stop-color:#D34343"/>
		<stop  offset="0.6287" style="stop-color:#CE2E2E"/>
		<stop  offset="0.7202" style="stop-color:#CB1F1F"/>
		<stop  offset="0.829" style="stop-color:#C91717"/>
		<stop  offset="1" style="stop-color:#C81414"/>
	</linearGradient>
	<path class="st33" d="M1002.3,818.3L1002.3,818.3c-27.3,27.3-64.4,42.7-103,42.7h-1.8v-42.7h1.8c38.7,0,75.7-15.4,103-42.7l0,0
		V818.3z"/>
	<linearGradient id="SVGID_34_" gradientUnits="userSpaceOnUse" x1="949.8" y1="862.1" x2="949.8" y2="774.4959">
		<stop  offset="0" style="stop-color:#5DECCA"/>
		<stop  offset="0.384" style="stop-color:#5CA7C8"/>
		<stop  offset="1" style="stop-color:#5932C4"/>
	</linearGradient>
	<path class="st34" d="M899.2,862.1h-1.8c-0.6,0-1.1-0.5-1.1-1.1v-42.7c0-0.6,0.5-1.1,1.1-1.1h1.8c38.6,0,74.9-15,102.2-42.4
		c0.3-0.3,0.8-0.4,1.2-0.2s0.7,0.6,0.7,1v42.7c0,0.3-0.1,0.6-0.3,0.8C975.4,846.8,938.5,862.1,899.2,862.1z M898.6,859.8h0.6
		c38.5,0,74.6-14.9,101.9-42v-39.5c-27.5,26.5-63.6,41.1-101.9,41.1h-0.6V859.8z M1002.3,818.3L1002.3,818.3L1002.3,818.3z"/>
</g>
<g>
	<linearGradient id="SVGID_35_" gradientUnits="userSpaceOnUse" x1="956.7" y1="795.3" x2="956.7" y2="742.1">
		<stop  offset="0" style="stop-color:#C81414"/>
		<stop  offset="0.171" style="stop-color:#C91717"/>
		<stop  offset="0.2798" style="stop-color:#CB1F1F"/>
		<stop  offset="0.3713" style="stop-color:#CE2E2E"/>
		<stop  offset="0.4532" style="stop-color:#D34343"/>
		<stop  offset="0.5287" style="stop-color:#D95E5E"/>
		<stop  offset="0.5995" style="stop-color:#E17F7F"/>
		<stop  offset="0.6666" style="stop-color:#EAA7A7"/>
		<stop  offset="0.7291" style="stop-color:#F5D3D3"/>
		<stop  offset="0.7821" style="stop-color:#FFFFFF"/>
		<stop  offset="1" style="stop-color:#D60B52"/>
	</linearGradient>
	<path class="st35" d="M1015.9,742.1c-31.8,31.4-73.8,50.3-118.4,53.2v-53.2H1015.9z"/>
	<linearGradient id="SVGID_36_" gradientUnits="userSpaceOnUse" x1="956.6" y1="796.4" x2="956.6" y2="740.9396">
		<stop  offset="0" style="stop-color:#5DECCA"/>
		<stop  offset="0.384" style="stop-color:#5CA7C8"/>
		<stop  offset="1" style="stop-color:#5932C4"/>
	</linearGradient>
	<path class="st36" d="M897.5,796.4c-0.3,0-0.6-0.1-0.8-0.3s-0.4-0.5-0.4-0.8v-53.2c0-0.6,0.5-1.1,1.1-1.1h118.4
		c0.5,0,0.9,0.3,1,0.7c0.2,0.4,0.1,0.9-0.3,1.2C984.7,774.5,942.4,793.5,897.5,796.4L897.5,796.4z M898.6,743.2v50.9
		c42.9-3.1,83.4-21.1,114.5-50.9H898.6z"/>
</g>
<g>
	<linearGradient id="SVGID_37_" gradientUnits="userSpaceOnUse" x1="1029.95" y1="1235.2999" x2="1029.95" y2="907.6">
		<stop  offset="0" style="stop-color:#610000"/>
		<stop  offset="0.2626" style="stop-color:#F3587D"/>
		<stop  offset="1" style="stop-color:#400088"/>
	</linearGradient>
	<path class="st37" d="M1086.3,907.6v71.5c0,34-8.6,67.4-25,97.2l0,0l-1.3,2.4l-86.4,156.6V986.1h8c43.3,0,78.5-35.1,78.5-78.5l0,0
		H1086.3z"/>
	<linearGradient id="SVGID_38_" gradientUnits="userSpaceOnUse" x1="1029.95" y1="1236.4" x2="1029.95" y2="906.6">
		<stop  offset="0" style="stop-color:#5932C4"/>
		<stop  offset="0.616" style="stop-color:#5CA7C8"/>
		<stop  offset="1" style="stop-color:#5DECCA"/>
	</linearGradient>
	<path class="st38" d="M973.6,1236.4c-0.1,0-0.2,0-0.3,0c-0.5-0.1-0.8-0.6-0.8-1.1V986.1c0-0.6,0.5-1.1,1.1-1.1h8
		c42.6,0,77.3-34.7,77.3-77.3c0-0.6,0.5-1.1,1.1-1.1h26.3c0.6,0,1.1,0.5,1.1,1.1v71.5c0,34.1-8.7,67.9-25.2,97.7l-1.3,2.4
		l-86.4,156.6C974.3,1236.1,974,1236.4,973.6,1236.4z M974.7,987.2v243.6l84.3-152.7l1.3-2.4c16.3-29.5,24.9-62.9,24.9-96.6v-70.4
		h-24.1c-0.6,43.4-36.1,78.5-79.6,78.5L974.7,987.2L974.7,987.2z"/>
</g>
<g>
	<linearGradient id="SVGID_39_" gradientUnits="userSpaceOnUse" x1="930.25" y1="1185.2" x2="930.25" y2="1064.6">
		<stop  offset="0" style="stop-color:#610000"/>
		<stop  offset="0.2626" style="stop-color:#F3587D"/>
		<stop  offset="1" style="stop-color:#400088"/>
	</linearGradient>
	<path class="st39" d="M955.5,1185.2L955.5,1185.2c-8.3-19.8-27.6-32.7-49.1-32.7H905l12.3-12.3v-75.6h38.2V1185.2z"/>
	<linearGradient id="SVGID_40_" gradientUnits="userSpaceOnUse" x1="930.198" y1="1186.4001" x2="930.198" y2="1063.6002">
		<stop  offset="0" style="stop-color:#5DECCA"/>
		<stop  offset="0.384" style="stop-color:#5CA7C8"/>
		<stop  offset="1" style="stop-color:#5932C4"/>
	</linearGradient>
	<path class="st40" d="M955.5,1186.4c-0.4,0-0.9-0.3-1-0.7c-8.1-19.4-27-32-48-32H905c-0.5,0-0.9-0.3-1-0.7
		c-0.2-0.4-0.1-0.9,0.2-1.2l11.9-11.9v-75.2c0-0.6,0.5-1.1,1.1-1.1h38.2c0.6,0,1.1,0.5,1.1,1.1v120.6
		C956.5,1185.8,956.1,1186.3,955.5,1186.4C955.6,1186.4,955.6,1186.4,955.5,1186.4z M907.7,1151.5c19.7,0.5,37.5,11.5,46.7,28.7
		v-114.4h-36v74.5c0,0.3-0.1,0.6-0.3,0.8L907.7,1151.5z"/>
</g>
<g>
	<linearGradient id="SVGID_41_" gradientUnits="userSpaceOnUse" x1="1164.5546" y1="775" x2="1164.5546" y2="514.5001">
		<stop  offset="0" style="stop-color:#38225E"/>
		<stop  offset="0.1452" style="stop-color:#5932C4"/>
		<stop  offset="0.1812" style="stop-color:#613CC7"/>
		<stop  offset="0.2421" style="stop-color:#7757CF"/>
		<stop  offset="0.3206" style="stop-color:#9A82DB"/>
		<stop  offset="0.4126" style="stop-color:#CABEEC"/>
		<stop  offset="0.5028" style="stop-color:#FFFFFF"/>
		<stop  offset="0.5627" style="stop-color:#F4FEFC"/>
		<stop  offset="0.6667" style="stop-color:#D8FCF3"/>
		<stop  offset="0.8024" style="stop-color:#AAF8E5"/>
		<stop  offset="0.9629" style="stop-color:#6BF2D2"/>
		<stop  offset="1" style="stop-color:#5BF1CD"/>
	</linearGradient>
	<path class="st41" d="M1099.1,775v-74.5c0-9.1-0.7-18.3-2-27.3c57.7-6.6,101.3-55.5,101.3-113.6v-45.1l24.2,64.4
		C1256.8,670,1193.7,766.9,1099.1,775z"/>
	<linearGradient id="SVGID_42_" gradientUnits="userSpaceOnUse" x1="1164.4902" y1="776.1" x2="1164.4902" y2="513.3809">
		<stop  offset="0" style="stop-color:#5DECCA"/>
		<stop  offset="0.384" style="stop-color:#5CA7C8"/>
		<stop  offset="1" style="stop-color:#5932C4"/>
	</linearGradient>
	<path class="st42" d="M1099.1,776.1c-0.3,0-0.6-0.1-0.8-0.3c-0.2-0.2-0.4-0.5-0.4-0.8v-74.5c0-9-0.7-18.2-2-27.1
		c0-0.3,0-0.6,0.2-0.9c0.2-0.2,0.5-0.4,0.8-0.4c57.2-6.5,100.3-54.9,100.3-112.5v-45.1c0-0.5,0.4-1,0.9-1.1s1.1,0.2,1.3,0.7
		l24.2,64.4c16.3,43.3,11.4,90.6-13.3,129.7C1185.6,747.5,1145.1,772.2,1099.1,776.1C1099.2,776.1,1099.1,776.1,1099.1,776.1z
		 M1098.4,674.2c1.2,8.7,1.9,17.5,1.9,26.3v73.3c44.7-4.2,84.1-28.5,108.2-66.7c24.3-38.5,29.1-85.1,13.1-127.7l-22-58.6v38.8
		C1199.6,617.9,1156.1,667,1098.4,674.2z"/>
</g>
<g>
	<linearGradient id="SVGID_43_" gradientUnits="userSpaceOnUse" x1="942.15" y1="729.4" x2="942.15" y2="673.9">
		<stop  offset="0" style="stop-color:#38225E"/>
		<stop  offset="0.1452" style="stop-color:#5932C4"/>
		<stop  offset="0.1812" style="stop-color:#613CC7"/>
		<stop  offset="0.2421" style="stop-color:#7757CF"/>
		<stop  offset="0.3206" style="stop-color:#9A82DB"/>
		<stop  offset="0.4126" style="stop-color:#CABEEC"/>
		<stop  offset="0.5028" style="stop-color:#FFFFFF"/>
		<stop  offset="0.5627" style="stop-color:#F4FEFC"/>
		<stop  offset="0.6667" style="stop-color:#D8FCF3"/>
		<stop  offset="0.8024" style="stop-color:#AAF8E5"/>
		<stop  offset="0.9629" style="stop-color:#6BF2D2"/>
		<stop  offset="1" style="stop-color:#5BF1CD"/>
	</linearGradient>
	<path class="st43" d="M954,729.4h-23.7v-55.5c8.1,10.7,14.5,22.6,18.8,35.4C951.2,715.9,952.9,722.6,954,729.4z"/>
	<linearGradient id="SVGID_44_" gradientUnits="userSpaceOnUse" x1="942.2687" y1="730.6" x2="942.2687" y2="672.8215">
		<stop  offset="0" style="stop-color:#5DECCA"/>
		<stop  offset="0.384" style="stop-color:#5CA7C8"/>
		<stop  offset="1" style="stop-color:#5932C4"/>
	</linearGradient>
	<path class="st44" d="M954,730.6h-23.7c-0.6,0-1.1-0.5-1.1-1.1V674c0-0.5,0.3-0.9,0.8-1.1c0.5-0.2,1,0,1.3,0.4
		c8.2,10.8,14.6,22.8,19,35.7c2.2,6.6,3.9,13.5,5,20.3c0.1,0.3,0,0.7-0.3,0.9S954.3,730.6,954,730.6z M931.4,728.3h21.2
		c-1.1-6.3-2.6-12.6-4.7-18.7c-3.9-11.5-9.5-22.4-16.6-32.3L931.4,728.3L931.4,728.3z"/>
</g>
<g>
	<linearGradient id="SVGID_45_" gradientUnits="userSpaceOnUse" x1="942.85" y1="1030.9" x2="942.85" y2="866">
		<stop  offset="0" style="stop-color:#38225E"/>
		<stop  offset="0.1452" style="stop-color:#5932C4"/>
		<stop  offset="0.1812" style="stop-color:#613CC7"/>
		<stop  offset="0.2421" style="stop-color:#7757CF"/>
		<stop  offset="0.3206" style="stop-color:#9A82DB"/>
		<stop  offset="0.4126" style="stop-color:#CABEEC"/>
		<stop  offset="0.5028" style="stop-color:#FFFFFF"/>
		<stop  offset="0.5627" style="stop-color:#F4FEFC"/>
		<stop  offset="0.6667" style="stop-color:#D8FCF3"/>
		<stop  offset="0.8024" style="stop-color:#AAF8E5"/>
		<stop  offset="0.9629" style="stop-color:#6BF2D2"/>
		<stop  offset="1" style="stop-color:#5BF1CD"/>
	</linearGradient>
	<path class="st45" d="M955.5,866v68.6c0,33.7-8.7,66.9-25.3,96.3V874C938.9,872.1,947.3,869.5,955.5,866z"/>
	<linearGradient id="SVGID_46_" gradientUnits="userSpaceOnUse" x1="942.9" y1="1032.1" x2="942.9" y2="864.9343">
		<stop  offset="0" style="stop-color:#5DECCA"/>
		<stop  offset="0.384" style="stop-color:#5CA7C8"/>
		<stop  offset="1" style="stop-color:#5932C4"/>
	</linearGradient>
	<path class="st46" d="M930.2,1032.1c-0.1,0-0.2,0-0.3,0c-0.5-0.1-0.8-0.6-0.8-1.1V874c0-0.5,0.4-1,0.9-1.1c8.6-1.8,17-4.5,25.1-7.9
		c0.4-0.1,0.8-0.1,1.1,0.1s0.5,0.6,0.5,0.9v68.6c0,33.9-8.8,67.4-25.4,96.9C931,1031.8,930.6,1032.1,930.2,1032.1z M931.4,874.9
		v151.6c15-28.2,23-59.9,23-91.9v-66.9C946.9,870.8,939.2,873.2,931.4,874.9z"/>
</g>
<g>
	<linearGradient id="SVGID_47_" gradientUnits="userSpaceOnUse" x1="1109.3658" y1="886.5" x2="1109.3658" y2="795.3">
		<stop  offset="0" style="stop-color:#38225E"/>
		<stop  offset="0.1452" style="stop-color:#5932C4"/>
		<stop  offset="0.1812" style="stop-color:#613CC7"/>
		<stop  offset="0.2421" style="stop-color:#7757CF"/>
		<stop  offset="0.3206" style="stop-color:#9A82DB"/>
		<stop  offset="0.4126" style="stop-color:#CABEEC"/>
		<stop  offset="0.5028" style="stop-color:#FFFFFF"/>
		<stop  offset="0.5627" style="stop-color:#F4FEFC"/>
		<stop  offset="0.6667" style="stop-color:#D8FCF3"/>
		<stop  offset="0.8024" style="stop-color:#AAF8E5"/>
		<stop  offset="0.9629" style="stop-color:#6BF2D2"/>
		<stop  offset="1" style="stop-color:#5BF1CD"/>
	</linearGradient>
	<path class="st47" d="M1097.1,886.5L1097.1,886.5v-91.2l22.8,57.6c5,12.6-1.2,26.9-13.8,31.9
		C1103.3,885.9,1100.2,886.5,1097.1,886.5z"/>
	<linearGradient id="SVGID_48_" gradientUnits="userSpaceOnUse" x1="1109.4014" y1="887.7" x2="1109.4014" y2="794.2809">
		<stop  offset="0" style="stop-color:#5DECCA"/>
		<stop  offset="0.384" style="stop-color:#5CA7C8"/>
		<stop  offset="1" style="stop-color:#5932C4"/>
	</linearGradient>
	<path class="st48" d="M1097.1,887.7c-0.3,0-0.6-0.1-0.8-0.3c-0.2-0.2-0.3-0.5-0.3-0.8v-91.2c0-0.5,0.4-1,0.9-1.1s1.1,0.2,1.3,0.7
		l22.8,57.6c2.5,6.4,2.4,13.4-0.3,19.7c-2.7,6.3-7.7,11.2-14.1,13.7C1103.5,887.1,1100.3,887.7,1097.1,887.7z M1098.2,801.2v84.1
		c2.6-0.1,5.1-0.7,7.5-1.6c5.8-2.3,10.4-6.7,12.9-12.5c2.5-5.7,2.6-12.1,0.3-17.9L1098.2,801.2z"/>
</g>
<g>
	<path class="st49" d="M350.6,337.7c0.7-1.3,1.2-2.7,1.8-4.1c0.5-1.4,1.3-2.7,2.3-3.7l23.4-22.8c1-1,2-2,3-3.1c0.8-1,1.8-2,2.8-3.1
		c0.2-0.3,0.7-0.7,1.3-1.4c0,0.9,0.2,1.9,0.4,2.8c0.4,1.2,1,2.3,1.9,3.2c1,1,2.5,1.4,3.9,1c1.6-0.3,3-0.9,4.4-1.8
		c1.5-0.9,2.9-2,4.3-3.1s2.7-2.4,3.9-3.7c1.2-1.3,2.3-2.4,3.3-3.3c0.6-0.6,1.6-1.7,3-3.2c1.3-1.5,2.7-3,4.2-4.7
		c0.5-0.5,0.9-1.1,1.3-1.6c-0.4,1.6-0.9,3.3-1.4,5.2c-0.8,3.2-1.7,6.4-2.5,9.7c-0.8,3.3-1.6,6.5-2.3,9.6c-0.7,3.1-1.3,5.9-1.8,8.4
		c-0.2,0.8-0.4,1.7-0.6,2.7c-0.2,0.9-0.3,1.7-0.3,2.6c0,0.7,0.1,1.3,0.5,1.9c0.3,0.5,0.9,0.6,1.7,0.5c0.9-0.2,1.7-0.9,2-1.8
		c0.5-1.2,0.9-2.4,1.2-3.6c0.3-1.4,0.6-2.7,0.8-4.1c0.1-1.1,0.4-2.2,0.6-3.3c0.3-1.4,0.9-4,1.9-7.8c1-3.7,1.9-7.7,3-11.7
		c1-4.1,2-7.9,3-11.3c1-3.5,1.6-5.7,2-6.8c0.7-2,1.2-4.1,1.7-6.1c0.6-2.6,1.1-4.9,1.6-6.9c0.1-0.7,0.4-1.3,0.7-2
		c0.3-0.6,0.5-1.2,0.6-1.8c0.2-0.7,0.4-1.5,0.5-2.2c0.1-0.7,0.3-1.4,0.6-2.1l9.6-28.6c0.8-0.3,2.4-0.9,5-1.9c2.5-0.9,5.4-2,8.4-3
		c3.1-1.1,6.1-2.1,9.1-3c2.3-0.8,4.7-1.4,7-1.9c0.6-0.1,1.3-0.2,1.9-0.2c0.4,0.1,0.7,0.1,1.1,0c0.1-0.1,0.1,0.3,0,1
		c1-0.1,1.9-0.6,2.6-1.3c0.5-0.5,0.8-1.2,0.7-2c-0.1-0.7-0.6-1.3-1.2-1.5c-1-0.4-2.2-0.5-3.3-0.2c-3.8,0.7-7.6,1.7-11.3,2.9
		c-3.8,1.3-7.5,2.6-11.3,4c-0.9,0.3-2,0.8-3.3,1.3c-1.1,0.4-2.2,0.8-3.4,1c0.1-0.8,0.4-1.5,0.9-2.1c0.3-0.3,0.6-0.5,1-0.6
		c0.3-0.1,0.6-0.2,0.9-0.4c0.4-0.5,0.7-1,0.8-1.6c0.1-0.4,0.2-0.7,0.2-1.1c0-0.2,0.1-0.5,0.1-0.7c0.1-0.7,0.2-1,0.2-0.9
		s0.2-0.2,0.4-1.1c0.3-0.9,0.3-1.8,0-2.7c-0.1-0.6-0.7-1-1.3-0.9l0,0c-0.8,0.1-1.8,1-3.1,2.6c-1.7,2.5-3.2,5.3-4.2,8.2
		c-0.5,1.2-0.9,2.1-1.2,2.6c-0.2,0.5-0.5,0.9-1,1.2s-1,0.6-1.6,0.8c-0.7,0.3-1.7,0.7-3.1,1.3c-1.2,0.6-3,1.4-5.4,2.4s-5,2.2-7.8,3.6
		c-2.8,1.3-5.7,2.8-8.7,4.3s-5.7,3-8.2,4.5c-2.2,1.3-4.3,2.7-6.3,4.3c-1.7,1.4-2.7,2.5-3,3.5s-0.2,1.6,0.3,1.8s1.1,0.2,1.7,0.1
		c0.7-0.2,1.5-0.4,2.2-0.7c0.4-0.7,0.7-1.2,0.9-1.5c0.1-0.3,0.3-0.5,0.4-0.8c0.2-0.3,0.4-0.5,0.7-0.6c0.4-0.2,1-0.5,1.8-1
		s1.6-1,2.3-1.5c0.7-0.5,1.5-1,2.3-1.5c4.3-2.3,8.4-4.5,12.3-6.4s8.1-3.8,12.4-5.6c0.7-0.3,1.6-0.7,2.7-1.1c0.8-0.3,1.6-0.6,2.4-1
		l-4.4,13c-0.3,0.9-0.7,2-1,3.3c-0.3,1.1-0.7,2.3-1.1,3.3s-1,2.8-1.7,5.3s-1.5,5.2-2.3,8.1s-1.6,5.7-2.3,8.4c-0.7,2.7-1.2,4.7-1.5,6
		l-1.1,3.4c-0.2,0.2-0.4,0.3-0.6,0.5c-1.3,1.2-2.6,2.5-3.9,4s-2.5,2.8-3.5,4s-1.6,2-1.8,2.2c-0.7,0.7-1.6,1.7-2.8,3
		c-1.2,1.3-2.5,2.6-4,3.9c-1.4,1.2-2.8,2.4-4.3,3.5c-1.1,0.8-2.3,1.4-3.6,1.8c-0.7,0.2-1.5-0.2-1.8-0.9c-0.4-0.9-0.7-1.9-0.7-3
		c0-1.3,0-2.6,0.2-3.9c0-0.2,0.1-0.4,0.1-0.6c0.8-0.9,1.4-1.9,2-3s0.3-1.5-1-1.3c0,0-0.1,0-0.2,0.1c0.7-2.7,1.6-5.4,2.7-8.1
		c1.1-2.6,2-4.8,2.6-6.5c0.5-1.1,0.9-2.4,0.9-3.6c0-0.7-0.8-1-2.2-0.7c-0.7,0.2-1.4,0.7-1.9,1.3c-0.7,0.8-1.3,1.7-1.9,2.7
		s-1.1,2.1-1.5,3.1c-0.5,1-0.8,1.9-1.1,2.7c-1.6,3.8-2.8,7.7-3.6,11.7c-0.2,1-0.4,1.9-0.5,2.8c-0.1,0.2-0.3,0.3-0.4,0.4
		c-0.7,0.9-1.4,1.6-1.9,2.2L361.2,319c-0.4,0.3-0.8,0.6-1.2,0.9c-0.4,0.3-0.8,0.7-1.2,1.1c-0.5,0.3-0.9,0.7-1.3,1.2
		c-0.3,0.4-0.6,0.7-1,1c0.8-2.8,2.2-6.8,4.2-12.1c2.2-5.6,4-11.4,5.5-17.3c0.3-1.2,0.7-2.7,1.2-4.7c0.5-1.9,0.9-3.7,1.1-5.6
		c0.3-1.5,0.3-3.1,0.1-4.7c-0.2-1.3-0.9-1.8-2.1-1.6c-1,0.2-2.2,1.1-3.8,2.7c-1.7,1.8-3.3,3.7-4.7,5.8c-1.6,2.2-3.2,4.5-4.7,6.7
		c-1.5,2.3-2.8,4.1-3.7,5.5c-1.8,2.6-3.5,5-5.1,7.3c-1.5,2.2-3.1,4.4-4.6,6.5c-1.6,2.1-3.2,4.3-4.9,6.4c-1.7,2.2-3.5,4.5-5.5,6.8
		l-8.7,9.3c-1.8,1.8-3.8,3.7-6.1,5.7c-2.3,2-4.7,3.9-7.2,5.6c-2.4,1.7-4.9,3.3-7.6,4.6c-2.3,1.2-4.7,2.1-7.3,2.6
		c-1.5,0.3-3.1,0.3-4.6,0c-1.4-0.3-2.7-1-3.7-2.1c-0.9-0.8-1.6-1.8-1.9-3c-0.4-1.3-0.7-2.5-0.9-3.7c-0.7-4.3-0.6-8.7,0.2-13
		c0.9-5.3,2.2-10.6,3.9-15.7c1.7-5.4,3.7-10.7,5.9-16c2.2-5.2,4.2-9.8,6.2-13.6c1.1-2.2,2.6-4.9,4.3-8.1c1.8-3.2,3.8-6.6,6-10.1
		s4.6-7,7.1-10.5c2.4-3.4,5-6.6,7.9-9.7c2.4-2.7,5.2-5.2,8.1-7.4c2.3-1.8,4.9-3,7.7-3.6c2.7-0.5,4.7,0.2,6,2
		c1.4,2.2,2.3,4.7,2.6,7.2c0.4,3.2,0.4,6.5,0.1,9.7c-0.3,3.3-0.9,6.5-1.6,9.7c-0.7,2.9-1.4,5.6-2.1,7.9c-0.6,2.3-1.3,4.6-2,6.8
		c-0.7,2.2-1.5,4.5-2.4,6.9c-0.9,2.3-2,5-3.3,7.9c-0.8,2.1-1.4,3.8-1.9,5c-0.6,1.4-0.8,3-0.9,4.5c0.4,0.1,0.8,0.1,1.2,0.2
		c0.3,0,0.6,0,0.9,0c0.9-0.3,1.6-0.9,2-1.7c0.6-1,1.5-2.9,2.7-5.7c2.1-4.6,4.1-9.4,6.1-14.6c1.9-5.1,3.5-10.2,4.9-15.4
		c1.3-4.8,2.2-9.8,2.8-14.8c0.5-4.2,0.4-8.5-0.3-12.6c-0.9-4.3-2.5-7.2-4.8-8.8c-2.4-1.6-5.3-2.2-8.2-1.5c-3.7,0.7-7.8,2.7-12.3,6.1
		c-5,3.9-9.5,8.4-13.4,13.4c-4.4,5.3-8.4,10.9-12,16.7c-3.8,6.2-7.4,12.6-10.5,19.1c-3.2,6.6-6,13-8.4,19.4
		c-2.2,5.8-4.2,11.7-5.7,17.7c-1.7,6.3-2.6,12.7-2.7,19.2c-0.1,5.1,1.4,10.1,4.3,14.3c1.2,1.8,3.2,3,5.4,3.1c2.3,0,4.6-0.2,6.9-0.6
		c3.6-0.8,7-2.2,10.1-4.2c3.9-2.4,7.6-5,11.2-8c3.7-3.1,7.3-6.3,10.6-9.8c3.4-3.5,6.3-6.7,8.7-9.6c2.8-3.4,5.2-6.3,7-8.8
		c1.9-2.5,3.6-4.8,5.3-7.1c1.6-2.3,3.3-4.6,5-7s3.8-5.3,6.3-8.6l7.8-10.7c-0.3,2.8-0.8,5.6-1.7,8.4c-1.1,3.7-2.3,7.7-3.6,11.8
		c-1.4,4.1-2.8,8.2-4.2,12.1c-1.4,3.9-2.5,7-3.4,9.2c-0.7,2-1.6,4-2.6,5.8c-0.5,1-1.2,1.9-2.1,2.6c-0.8,0.7-1.7,1.4-2.8,2.3
		c-1.8,1.6-3.4,3.2-4.9,5.1c-0.6,0.8-1.2,1.6-1.9,2.3c-0.7,0.6-1.4,1.4-2.1,2.2c-2,2.4-4.4,5.2-7.1,8.4c-2.7,3.2-5.4,6.5-8.1,10
		c-2.6,3.4-4.9,6.8-7.1,10.4c-1.9,3-3.3,6.3-4.3,9.7c-0.4,1.6-0.8,3.1-1.1,4.7c-0.3,1.3-0.4,2.7-0.3,4c0.1,1.1,0.8,2,1.7,2.6
		c0.9,0.6,2.5,0.7,4.6,0.3c1.2-0.3,2.4-0.9,3.4-1.7c1.3-1,2.4-1.8,3.2-2.5c3.6-3.4,6.8-7.2,9.5-11.3c3.1-4.7,6-9.5,8.7-14.5
		c2.7-5.1,5.2-10.1,7.4-15.1C347.3,345.7,349.1,341.4,350.6,337.7z M337.6,357.1c-1.8,3.7-3.8,7.6-6,11.6s-4.4,7.6-6.6,10.9
		c-1.9,2.9-4.1,5.7-6.5,8.2c-2.1,2.2-4,3.5-5.7,3.8c-1.3,0.2-2.1-0.2-2.2-1.2c-0.2-1.3,0-2.6,0.3-3.8c0.4-1.6,1-3.2,1.7-4.8
		c0.8-1.7,1.4-3,1.9-3.9c1.4-2.7,3-5.3,4.8-7.8c2-2.9,4.1-5.8,6.4-8.8c2.3-2.9,4.7-5.8,7.1-8.6c2.4-2.8,4.6-5.2,6.7-7.3
		c1-0.9,1.9-2,2.8-3.1c0.8-1.1,1.8-2.1,2.9-2.9c-0.8,2.5-1.7,4.9-2.8,7.2C341,349.9,339.4,353.3,337.6,357.1L337.6,357.1z"/>
	<path class="st49" d="M407.2,253.9c1.2-1.7,1.6-3.9,1.1-5.9c-0.3-1.3-1-1.8-1.9-1.6c-1.2,0.4-2.2,1.1-2.9,2.2
		c-1,1.2-1.7,2.7-2.1,4.3s-0.4,2.6,0.1,3.2s1.3,0.8,2.1,0.6C405,256.1,406.3,255.2,407.2,253.9z"/>
	<path class="st49" d="M469.5,260.3c-2.2,2.8-4.2,5.8-5.9,8.9c-0.9,0.6-1.7,1.4-2.4,2.3c-1.6,1.9-3.3,4-5.2,6.2
		c-1.9,2.2-3.8,4.2-5.9,6.1c-2,1.8-4.1,3.5-6.4,4.9c-1.9,1.3-4.1,2.2-6.4,2.7c-1.5,0.3-2.5,0.1-3.1-0.6c-0.6-0.8-1-1.8-1-2.8
		c-0.3-1.9-0.1-3.8,0.5-5.7c0.7-2.3,1.6-4.6,2.7-6.7c1.1-2.2,2.5-4.3,3.9-6.3c1.2-1.7,2.6-3.2,4.1-4.5c-0.4,2.3,0.1,3.4,1.3,3.2
		c1.1-0.2,1.9-1.5,2.5-3.9c0.9-3.7,0.1-5.2-2.5-4.8c-2.1,0.5-4,1.5-5.5,3c-2,1.8-3.7,3.8-5.3,5.9c-1.6,2.2-3,4.5-4.2,6.9
		c-1,1.9-1.8,3.9-2.4,6c-0.5,2-0.8,4.1-0.9,6.2c-0.1,1.7,0.1,3.4,0.7,5c0.5,1.3,1.5,2.4,2.7,3c1.6,0.7,3.4,0.8,5.1,0.4
		c2.6-0.5,5.1-1.6,7.3-3c2.5-1.6,4.9-3.5,7-5.6c0.9-0.9,2-1.9,3.3-3.2c1.3-1.3,2.6-2.6,4-4.1c0.1-0.2,0.3-0.3,0.4-0.5c0,0,0,0,0,0.1
		c-1.1,2.4-2.1,4.8-2.9,7.3c-0.9,3.6-1,6.1-0.3,7.7c0.5,1.5,2,2.3,3.5,1.9c1.9-0.3,4.1-1.9,6.7-4.6c3-3.4,5.4-7.3,7-11.5
		c1.3-2.8,2.2-5.7,2.8-8.7c0.3-1.7,0.3-3.4,0.1-5c-0.2-1-0.5-2-1.1-2.8c-0.4-0.5-0.7-1.2-0.7-1.8c0.5-0.6,1-1.2,1.6-1.7
		c0.5-0.5,0.9-1,1.3-1.5c0.3-0.6,0.4-1.3,0.3-2c-0.1-0.8-0.6-1.1-1.4-0.9C473.4,256.1,471.6,257.6,469.5,260.3z M470.5,271.4
		c-0.5,2.5-1.2,5-2.2,7.3c-1,2.6-2.3,5.1-3.9,7.4c-1.5,2.3-2.9,3.7-4.3,4.3c-0.2-1.9,0.1-3.8,0.8-5.5c0.8-2.3,1.8-4.6,2.9-6.8
		c1.2-2.3,2.3-4.5,3.5-6.5c1.1-2,2-3.5,2.5-4.6C470.7,267.8,470.9,269.2,470.5,271.4z"/>
	<path class="st49" d="M481,288.5c1,1,2.5,1.4,3.9,1c1.6-0.3,3-0.9,4.4-1.8c1.5-0.9,2.9-2,4.3-3.1s2.7-2.4,3.9-3.7
		c1.2-1.3,2.3-2.4,3.2-3.3c0.6-0.6,1.6-1.7,3-3.2c1-1.1,2-2.1,3-3.3c-0.5,1.6-0.7,3.3-0.6,5c0.1,1.5,0.8,2.1,2.1,1.8
		c1.2-0.2,2.7-1.4,4.3-3.5c1.7-2.1,3.4-4.4,5.2-7s3.5-5.1,5.2-7.5c1.2-1.9,2.6-3.6,4.3-5c0.1,0.8,0,1.6-0.2,2.4
		c-0.3,1-0.6,2.2-0.9,3.6c-0.3,1.4-0.6,2.9-0.8,4.5c-0.2,1.8-0.3,3.7-0.3,5.5c0.1,1.6,0.5,3.2,1.2,4.6c0.1,0.2,0.2,0.3,0.3,0.4
		c0.6,0.8,1.5,1.2,2.4,1.2c0.4,0,0.8,0,1.2-0.1c0.9-0.2,1.7-0.4,2.5-0.8c0.5-0.2,0.9-0.5,1.3-0.8c0.1,0,0.2-0.1,0.3-0.1
		c1.6-0.7,3.2-1.5,4.9-2.3c2.5-1.2,4.7-2.6,7.5-3.4c2.7-0.7,5.5-1.3,8.3-1.6c2.4-0.4,6.6-1.3,12.5-2.9c3.1-0.8,6.8-1.9,11.2-3.1
		s8.7-2.6,12.9-3.9c4.2-1.4,8-2.7,11.2-3.9s5-2.1,5.3-2.7c-1.4,0.2-2.8,0.4-4.2,0.8c-1.2,0.3-2.4,0.7-3.6,1.2
		c-1,0.4-2.9,1.1-5.7,2.1c-2.5,0.8-5.1,1.7-7.8,2.4c-2.7,0.8-5.6,1.6-8.7,2.4c-4.9,1.4-9.9,2.5-14.9,3.2c-4.9,0.5-9.8,1.2-14.6,2.3
		c-2.5,0.7-4.9,1.5-7.3,2.6c-0.1,0-0.1,0-0.1,0.1c-2.7,1.1-5.2,2.3-7.6,3.5c-0.4,0.3-0.8,0.5-1.3,0.6h-0.1c-0.2,0.1-0.3,0.1-0.5,0.1
		c-0.9,0.3-1.8-0.2-2.1-1.1c0-0.1-0.1-0.2-0.1-0.4c-0.3-1.4-0.4-2.9-0.3-4.3c0.2-1.7,0.4-3.4,0.8-5.1c0.4-1.7,0.6-3,0.8-3.8l1.2-7.6
		c-0.2-1.3-0.8-1.9-1.8-1.8c-1,0.3-1.8,0.8-2.5,1.5c-1,0.9-2,1.9-2.9,2.9c-0.9,1.1-1.8,2.2-2.6,3.2c-0.8,1.1-1.3,1.8-1.5,2.2
		l-8.5,11.1c0.8-2.9,1.9-5.7,3.2-8.4c1.5-2.9,2.9-5.6,4.1-8c1-1.9,1.9-3.8,2.6-5.8c0.5-1.5,0-2.1-1.3-1.8c-0.7,0.1-1.8,1.1-3,2.8
		c-1.5,2-2.8,4.1-4,6.3c-1.4,2.5-2.7,5.1-3.9,8c-0.1,0.3-0.3,0.6-0.4,0.9c-0.9,0.8-1.8,1.8-2.7,2.8c-1.3,1.5-2.5,2.8-3.5,4
		s-1.6,2-1.8,2.2c-0.7,0.7-1.6,1.7-2.8,3c-1.2,1.3-2.5,2.5-4,3.9c-1.4,1.2-2.8,2.4-4.3,3.5c-1.1,0.8-2.3,1.4-3.6,1.8
		c-0.8,0.2-1.5-0.2-1.8-0.9c-0.4-0.9-0.7-1.9-0.6-3c0-1.3,0-2.6,0.2-3.9c0.1-1.2,0.4-2.4,0.7-3.6c0.8-3.1,1.8-6.2,3-9.2
		c1.1-2.6,2-4.8,2.6-6.5c0.5-1.1,0.9-2.4,0.9-3.6c-0.1-0.7-0.8-1-2.2-0.7c-0.7,0.2-1.4,0.7-1.8,1.3c-0.7,0.8-1.3,1.8-1.9,2.7
		c-0.6,1-1.1,2-1.6,3.1s-0.8,2-1.1,2.7c-1.6,3.8-2.8,7.7-3.6,11.7c-0.9,4.2-1,7.7-0.3,10.6C479.5,286.5,480.1,287.6,481,288.5z"/>
	<path class="st49" d="M497.1,239.5c1.5-0.4,2.8-1.4,3.7-2.7c1.2-1.7,1.6-3.9,1.1-5.9c-0.3-1.2-0.9-1.8-1.9-1.6
		c-1.2,0.4-2.2,1.1-2.9,2.2c-1,1.3-1.7,2.7-2.1,4.3s-0.4,2.6,0.1,3.2C495.5,239.5,496.3,239.7,497.1,239.5z"/>
	<path class="st49" d="M516.3,361c-1.2,0.4-2.2,1.1-2.9,2.2c-1,1.2-1.7,2.7-2.1,4.3c-0.4,1.6-0.4,2.6,0.1,3.2s1.3,0.8,2.1,0.6
		c1.5-0.4,2.8-1.4,3.7-2.7c1.2-1.7,1.6-3.9,1.1-5.9C517.9,361.4,517.3,360.8,516.3,361z"/>
	<path class="st49" d="M563.6,354.4c0.4-0.9,1.1-2.3,2.1-4.2c1-2,1.9-3.9,2.7-5.9c0.7-1.6,1.2-3.4,1.6-5.1c0.2-1.4-0.2-2.1-1.3-1.8
		c-0.1,0-0.2,0.1-0.3,0.1c-0.1,0.1-0.2,0.1-0.4,0.1c-1,0.5-1.8,1.3-2.4,2.3c-0.9,1.3-1.7,2.7-2.4,4.1c-0.8,1.5-1.5,3-2.1,4.4
		c-0.6,1.5-1.1,2.6-1.4,3.3l-6.5,16c-0.5,1-1,1.8-1.4,2.6c-0.5,0.8-0.9,1.7-1.1,2.7c-0.9,0.2-1.4,0.2-1.4,0c0-0.1-0.3-0.1-1,0
		c-1.9,0.3-3.9,1.6-6.2,3.8c-2.4,2.4-4.6,5-6.6,7.9c-2.2,3.1-4.1,6.4-5.9,9.8c-0.3,0.5-0.4,1-0.7,1.4c-2.8,4-5.5,8.3-8.3,12.7
		c-2.9,4.8-5.9,9.4-8.8,13.8c-1.1,1.7-2.2,3.4-3.6,5.2c-1.2,1.7-2.7,3.2-4.4,4.3c-0.4-1.8-0.3-4.4,0.3-7.8c0.7-3.9,1.7-7.8,2.8-11.7
		c1.3-4.3,2.7-8.9,4.4-13.7c1.7-4.8,3.4-9.5,5.3-14c1.8-4.5,3.5-8.7,5.2-12.6c1.6-3.9,3.1-7,4.2-9.4c0.2-0.4,0.6-1.1,1.1-2.2
		c0.6-1.1,1.1-2.2,1.6-3.3c0.4-0.9,0.7-1.9,0.7-2.9c0-0.8-0.5-1.1-1.5-0.9c-0.9,0.2-1.8,0.8-2.3,1.5c-0.8,1-1.5,2-2.1,3.1
		c-0.7,1.2-1.4,2.4-2,3.7c-0.6,1.3-1.2,2.5-1.7,3.5c-1.5,3.2-3.1,6.8-4.7,10.7c-1.6,3.9-3.2,7.9-4.7,12c-1.4,3.9-2.8,7.7-4,11.4
		c-0.9,0.9-1.8,1.8-2.7,2.8c-1.3,1.5-2.5,2.8-3.5,4s-1.6,2-1.8,2.2c-0.7,0.7-1.6,1.7-2.8,3c-1.2,1.3-2.5,2.6-4,3.9
		c-1.3,1.2-2.8,2.4-4.3,3.5c-1.1,0.8-2.3,1.4-3.6,1.8c-0.7,0.2-1.5-0.2-1.8-0.9c-0.4-0.9-0.7-1.9-0.7-3c0-1.3,0-2.6,0.2-3.9
		c0.2-1.2,0.4-2.4,0.7-3.6c0.8-3.1,1.8-6.2,3-9.2c1.1-2.6,2-4.8,2.6-6.5c0.5-1.1,0.9-2.4,0.9-3.6c0-0.7-0.8-1-2.2-0.7
		c-0.7,0.2-1.4,0.7-1.9,1.3c-0.7,0.8-1.3,1.7-1.9,2.7s-1.1,2.1-1.5,3.1c-0.5,1-0.8,1.9-1.1,2.7c-0.8,1.9-1.5,3.9-2.1,5.9
		c-1.5,1.5-3.1,3-4.8,4.8c-1.9,1.9-3.8,3.6-5.7,5.2c-1.4,1.3-3.1,2.3-5,2.8c-1.1,0.2-2.2-0.4-2.5-1.4c-0.5-1.2-0.6-3.4-0.1-6.6
		c0.2-1.2,0.5-2.4,0.9-3.5c0.4-1.4,0.8-2.8,1.1-4.2c0.3-1.1,0.4-2.3,0.4-3.4c0-0.9-0.5-1.3-1.3-1.1c-1.2,0.2-2.2,0.9-2.9,1.9
		c-0.8,1.1-1.8,2.3-2.9,3.7l-10.4,13.4c-0.9,1-1.8,2.1-2.8,3.3c-0.8,1.1-1.9,1.9-3.1,2.6c0-0.5,0.1-1,0.2-1.5c0.2-0.3,0.5-0.7,0.8-1
		c0.6-0.6,1.1-1.4,1.5-2.2c0.1-0.7,0.2-1.5,0.2-2.2l-0.7,0.1c-0.1,0-0.2,0-0.3,0.1c0.1-0.3,0.2-0.5,0.3-0.8c1.2-2.8,2.5-5.5,4-8.1
		c1.4-2.6,2.8-4.8,4-6.6c1.2-1.8,1.8-2.8,1.8-2.9c0.1-0.4,0.2-0.8,0.1-1.2c-0.1-0.3-0.1-0.6-0.1-0.9c-0.6-0.3-1.3-0.4-2-0.3
		c-1.2,0.4-2.3,1.1-3.1,2.1c-1.2,1.4-2.2,2.9-3.2,4.5c-1.1,1.8-2.2,3.6-3.2,5.5c-1,1.8-1.8,3.7-2.6,5.6c-0.7,1.6-1.2,3.3-1.7,5
		c-0.3,1.2-0.6,2.4-1,3.7c-1.8,1.9-4,4.1-6.5,6.7c-2.7,2.8-5,5-6.9,6.8l-7.3,6.6c-0.5,0.4-1.2,1.1-2.1,1.9s-1.9,1.6-2.9,2.5
		c-1,0.8-2,1.6-2.9,2.4c-0.6,0.6-1.4,1-2.2,1.4c1-3.7,1.8-7.6,2.6-11.5c0.7-3.5,1-7.1,1-10.6c0-2.7-0.8-5.4-2.4-7.7
		c-1.5-1.9-4-2.7-7.5-2.3c-0.2,0-0.4,0-0.5,0c-0.2,0-0.4,0-0.5,0c-2.2,0.4-4.3,1.3-6.1,2.5c-1.9,1.2-3.9,2.2-5.9,3.1
		c0.5-0.8,1.5-2.1,3-4s3-3.9,4.8-6.1c1.7-2.2,3.4-4.3,5.1-6.4s3-3.7,3.9-5c2.6-3.6,5.4-7.7,8.4-12.1c2.9-4.5,5.7-9,8.2-13.5
		c2.4-4.4,4.6-8.9,6.5-13.5c1.7-3.9,2.8-8.1,3.3-12.3c0.4-3.6,0-6.1-1-7.6s-2.8-2.2-4.5-1.7c-2.6,0.5-5.6,2.2-8.8,5.3
		c-5,4.5-9.6,9.3-13.8,14.5c-4.6,5.5-8.9,11.2-13.1,17.2s-8.1,12-11.7,18.1s-6.8,11.8-9.7,17.1c-1.2,2.2-2.4,4.4-3.5,6.5
		c-1.2,2.1-2.3,4.2-3.4,6.4l-3.3,6.5c-0.5,1-1,2.1-1.5,3.3c-0.5,1.2-1.2,2.3-2,3.2c0.3-1,0.6-2,1-3c0.4-0.9,0.8-2,1.3-3.2l6.3-18
		c1.6-4.2,3.2-8.4,4.7-12.4c1.5-4.1,2.9-8.2,4.1-12.3c0.7-2.2,1.4-4.3,2.1-6.1c0.7-1.9,1.3-4,1.9-6.4c0.5-1.8,1-3.8,1.6-5.9
		s1-4.2,1.4-6.2c0.3-1.9,0.5-3.8,0.6-5.7c0.1-1.6-0.3-3.2-1-4.6c-0.5-1.3-1.8-2-3.1-1.7c-1.9,0.5-3.6,1.6-4.9,3.1
		c-1.9,1.9-3.7,3.9-5.4,6c-1.8,2.2-3.4,4.5-4.9,6.7s-2.6,3.9-3.3,5l-6.2,10c-2.5,4.6-4.9,9.1-7.2,13.7c-2.3,4.5-4.2,9.2-5.9,14
		c-1.1,3-2,6-2.8,9.1c-0.8,2.7-1,5.6-0.6,8.4c0.2,1,0.7,2,1.4,2.7c0.8,0.6,1.9,0.8,2.9,0.5c1.1-0.2,2.2-0.5,3.2-1
		c0.6-1.4,0.8-2.3,0.6-2.5c-0.3-0.3-0.8-0.4-1.2-0.4c-0.6,0-1.2,0-1.8-0.2c-0.6-0.2-0.9-0.9-1.1-2.2c0-2.7,0.4-5.4,1.2-7.9
		c0.9-3.2,1.8-6.1,2.8-8.6c2.9-7.6,6.4-15,10.4-22.1c4.1-7.3,8.7-14.3,13.7-20.9c1-1.4,2.1-2.9,3.4-4.5c1-1.4,2.4-2.5,4.1-3.1
		c0,1.2,0,2.4-0.1,3.5s-0.2,2.4-0.4,3.9c-0.2,1.6-0.6,3.2-1.1,4.7c-0.6,1.9-1,3.6-1.4,5c-0.7,2.8-1.6,5.7-2.6,8.7s-2.1,5.9-3.2,8.8
		c-4,11.7-8.1,23.3-12.4,34.8s-8.4,23.1-12.2,35l-8.9,26.2c-0.5,1.4-0.9,2.8-1.2,4.2c-0.2,0.9,0.5,1.5,2,1.5c0.7-0.4,1.4-0.9,2-1.5
		c0.5-0.8,1-1.6,1.3-2.5l6.8-17.8c1.6-3.9,3.3-7.5,4.9-11c1.7-3.5,3.4-7.1,5.1-10.8c2.9-6.3,6.2-12.9,9.7-19.9s7.2-13.9,11.1-20.9
		c3.9-6.9,7.9-13.8,12.2-20.5c4.2-6.7,8.5-13,12.8-18.8c1.1-1.4,2.7-3.5,4.9-6.3c2.2-2.8,4.6-5.5,7.1-8.3c2.3-2.6,4.8-5.1,7.4-7.4
		c2.4-2.2,4.4-3.4,6-3.7c1.8-0.3,2.6,1.1,2.3,4.3c-0.4,3.6-1.3,7.2-2.7,10.5c-1.7,4.1-3.5,8.1-5.6,12.1s-4.3,7.8-6.5,11.4
		c-2.2,3.5-4,6.4-5.5,8.5c-4.4,6.2-8.9,12.1-13.4,17.7s-9.1,11.3-13.8,17.2c-0.6,0.7-1.1,1.4-1.6,2s-1.1,1.3-1.7,2.1
		c-0.4,0.5-1,1.2-1.8,2.2c-0.7,0.8-1.3,1.7-1.8,2.7c-0.4,0.7-0.6,1.5-0.7,2.3c0,0.7,0.5,1,1.4,1c0.1,0,0.3,0,0.4,0s0.3,0,0.4,0
		c0.3,0,0.6-0.2,0.8-0.4c0.2-0.2,0.4-0.4,0.7-0.6c1.5-1.1,2.9-2.3,4.3-3.6c1.2-1.1,2.4-2.3,3.8-3.4c1.5-1.3,3.1-2.5,4.7-3.5
		c2.2-1.4,4.5-2.7,6.8-3.9c1.4-0.7,2.9-1.3,4.4-1.6c2.9-0.5,4.8,0.3,5.8,2.3c1.1,2.5,1.6,5.2,1.3,7.9c-0.2,3.5-0.8,7-1.6,10.4
		c-0.8,3.3-1.8,6.5-3,9.6l-0.1,0.4c-0.6,1.3-1.5,2.3-2.7,3.1c-1.1,0.7-2.8,1.9-5,3.4c-3.8,2.7-7.5,5.3-11.1,7.8s-7.2,5.1-10.7,7.6
		s-7,5.2-10.6,7.9c-3.6,2.8-7.2,5.8-11,9c-3.4,3-6.7,6.2-9.8,9.5c-3.2,3.4-6,7-8.6,10.9c-2.3,3.4-4.2,7.1-5.4,11
		c-0.9,2.6-1,5.4-0.5,8.1c0.5,2,1.9,3.8,3.8,4.7c2.4,1,5,1.2,7.5,0.6c3.7-0.7,8-2.5,13-5.6c5.9-3.8,11.3-8.3,16.2-13.3
		c8-8.1,15.1-17,21.3-26.6c6-9.3,11.1-19.1,15.3-29.3c0.9-2.1,1.5-3.6,1.9-4.4c0.3-0.8,0.8-1.6,1.4-2.2c0.9-0.9,1.8-1.7,2.8-2.4
		c1.3-1,3.3-2.6,6-4.8c1.2-1,2.3-2,3.4-2.9s2.2-2,3.4-3.2l13-12.6c1.1-0.9,2.1-1.9,3-3c0.1-0.1,0.2-0.2,0.3-0.3
		c0.1,0.3,0.3,0.6,0.5,0.9c0.5,0.6,1.5,0.8,2.9,0.5c1.4-0.4,2.6-1.2,3.6-2.3c1.4-1.3,2.8-2.9,4.3-4.6s2.9-3.5,4.2-5.3
		c1.3-1.8,2.3-3.2,3.1-4.2c0.6-0.8,1.4-1.9,2.4-3.3c0.7-1,1.5-1.9,2.4-2.7c-0.4,1.6-0.8,3.5-1.2,5.5c-0.4,1.9-0.5,3.8-0.5,5.7
		c0,1.5,0.5,3,1.4,4.2c0.8,1,2.3,1.4,4.3,1c2.2-0.5,4.4-1.5,6.2-2.9c2.3-1.6,4.5-3.5,6.5-5.4c0.5-0.4,1.2-1.1,2.2-2
		c0.2-0.2,0.4-0.4,0.5-0.5c-0.8,3.3-0.8,6.7-0.2,10.1c0.4,1.2,1,2.3,1.9,3.2c1,1,2.5,1.4,3.9,1c1.6-0.3,3-0.9,4.4-1.8
		c1.5-0.9,2.9-2,4.3-3.1c1.4-1.2,2.7-2.4,3.9-3.7c1.2-1.3,2.3-2.4,3.3-3.3c0.6-0.6,1.6-1.7,3-3.2c1.1-1.2,2.2-2.4,3.3-3.7
		c-0.4,1.5-0.8,3-1.2,4.4c-0.6,2.2-1.2,4.8-1.9,7.7c-0.6,2.8-1.1,5.5-1.4,8.4c-0.3,2.1-0.1,4.3,0.4,6.4c0.2,1.4,1.5,2.3,2.9,2.1
		c0.1,0,0.2,0,0.3-0.1c0.9-0.2,1.7-0.6,2.4-1.2c0.9-0.7,1.7-1.5,2.4-2.4c0.8-0.9,1.5-1.9,2.2-2.8c0.7-1,1.2-1.7,1.7-2.3
		c1-1.4,2.1-3,3.2-4.9c1.2-1.9,2.4-3.8,3.6-5.8c1.2-2,2.4-4,3.6-6c0.8-1.3,1.5-2.5,2.2-3.6c-0.4,1.4-0.6,2.9-0.5,4.4
		c0.1,1.8,1.1,2.5,2.8,2.2c1.3-0.3,2.4-0.9,3.4-1.7c1.1-1,2.2-2.1,3.1-3.2c1-1.2,1.9-2.5,2.8-3.9c0.9-1.4,1.6-2.7,2.3-3.8l7.3-12.4
		c0.2-0.4,0.4-0.7,0.6-1.1c0.1-0.1,0.3-0.3,0.9-0.9c-0.2,0.9-0.8,2.8-1.6,5.7c-0.8,2.9-1.8,6.3-2.8,10.1c-1.1,3.9-2.1,7.9-3.2,12.1
		c-1.1,4.2-1.9,8-2.6,11.5c-0.6,2.8-0.9,5.6-1,8.5c-0.1,2.2,0.4,3.2,1.3,3c0.8-0.1,1.6-0.4,2.2-1c0.4-0.6,0.6-1.3,0.7-2
		c0.1-0.9,0.2-2.1,0.3-3.6c0.2-1.9,0.5-3.7,1-5.5c1.4-5.7,2.8-11.5,4.1-17.4c1.4-5.8,2.9-11.7,4.5-17.6c1.7-5.9,3.5-11.8,5.7-17.7
		C558.3,366,560.8,360.1,563.6,354.4z M392,466.6c-0.9,2-1.9,4.2-3.1,6.5s-2.3,4.4-3.4,6.5s-2,3.7-2.7,4.7c-2.5,4.1-5.2,8.2-8,12.2
		s-5.7,7.9-8.8,11.7c-3.1,3.7-6.4,7.3-10,10.6c-3.5,3.2-7.2,6.2-11.2,8.8c-1.7,1.1-3.4,2.1-5.2,3c-1.8,0.9-3.8,1.6-5.8,2
		c-2.5,0.5-4.5,0.2-5.9-0.8c-1.4-1.2-2.2-3-2-4.8c0.2-2.9,1.1-5.7,2.5-8.2c2.1-3.9,4.6-7.6,7.5-10.9c1.6-1.9,3.5-4,5.9-6.3
		c2.4-2.4,4.5-4.3,6.2-5.8l13-10.7l32.7-23.1C393.3,463.5,392.7,465.1,392,466.6z M545.2,382.7c-1.8,3.2-3.7,6.7-5.9,10.4
		c-2.2,3.7-4.3,7.1-6.3,10.2s-3.4,4.7-4,4.8c-0.3,0.1-0.4-0.3-0.2-1.1c1.2-4.6,2.9-9,5.1-13.2c2.1-4.2,4.7-8.1,7.8-11.7
		c0.9-1.1,1.8-2.1,2.8-3.1c1-0.9,2.3-1.6,3.6-2C547.2,379,546.3,380.9,545.2,382.7z"/>
	<path class="st49" d="M777.5,354.4c-0.5-1-2.1-1.4-2.7-0.5c-0.5,0.7-0.2,1.6-0.2,2.4c-0.1,1-0.5,2-1,2.8c-2.5,4.4-5.1,8.7-7.9,13
		c-2.9,4.7-6.3,9.1-9.9,13.3c-4,4.4-8.7,8.3-14.4,10.1c-2.8,0.9-6.7,1.2-8.5-1.6c-0.6-1-0.9-2.3-0.8-3.5c0.2-2.9,1.3-5.9,2-8.8
		c0.7-3,1.4-6,2.1-9c1.4-5.8,2.9-11.7,4.5-17.6c1.7-5.9,3.5-11.8,5.7-17.7c2.2-6,4.7-11.9,7.5-17.7c0.4-0.8,1.1-2.3,2.1-4.2
		c1-2,1.9-3.9,2.7-5.9c0.7-1.6,1.2-3.4,1.6-5.1c0.3-1.4-0.2-2-1.3-1.8c-0.1,0-0.2,0.1-0.3,0.1c-0.1,0.1-0.2,0.1-0.4,0.1
		c-1,0.5-1.8,1.3-2.4,2.3c-0.9,1.3-1.7,2.7-2.4,4.1c-0.8,1.5-1.5,3-2.1,4.4c-0.6,1.5-1.1,2.6-1.4,3.3l-6.5,16
		c-0.4,0.9-0.9,1.8-1.4,2.6c-0.5,0.8-0.8,1.7-1.1,2.7c-0.9,0.2-1.3,0.2-1.3,0.1s-0.4-0.1-1,0c-1.9,0.4-3.9,1.6-6.2,3.8
		c-2.4,2.4-4.6,5.1-6.6,7.9c-1.9,2.8-3.7,5.7-5.3,8.7c-0.8,0.7-1.4,1.5-2.1,2.4c-1.5,1.9-3.1,4-4.9,6.3c-1.8,2.3-3.6,4.4-5.4,6.3
		c-1.8,1.9-3.3,3-4.5,3.2c-0.9,0.2-1.9-0.3-2.1-1.2c0-0.1,0-0.2-0.1-0.3c-0.3-1.4-0.4-2.9-0.2-4.3c0.2-1.7,0.4-3.4,0.8-5.1
		c0.4-1.7,0.6-3,0.8-3.8l1.2-7.6c-0.2-1.3-0.8-1.9-1.8-1.8c-1,0.3-1.8,0.8-2.5,1.5c-1,0.9-2,1.9-2.9,2.9c-0.9,1.1-1.8,2.2-2.6,3.2
		c-0.8,1.1-1.3,1.8-1.6,2.2l-8.5,11.1c0.8-2.9,1.9-5.7,3.2-8.4c1.5-2.9,2.8-5.6,4.1-8c1-1.9,1.9-3.8,2.6-5.8c0.5-1.5,0-2.1-1.3-1.8
		c-0.8,0.1-1.8,1.1-3.1,2.8c-1.5,2-2.8,4.1-4,6.3c-1.4,2.6-2.7,5.3-3.9,8c0,0,0,0.1-0.1,0.1c-0.9,0.9-1.7,1.8-2.4,2.7
		c-1,1.2-2,2.3-3.1,3.4c-3.6,3.6-6.5,5.6-8.8,6c-1.1,0.3-2.4-0.1-3.1-1.1c-0.7-1-1-2.6-0.9-5c0.1-1.3,0.3-2.6,0.6-3.9
		c0.3-1.4,0.6-2.6,0.8-3.7c0.2-0.8,0.2-1.7,0-2.6c-0.2-0.6-0.8-0.8-1.9-0.6c-0.4,0.1-1.2,0.8-2.3,2.2c-1.1,1.4-2.3,3.1-3.6,4.9
		c-1.3,1.9-2.6,3.7-3.9,5.7c-1.3,1.9-2.4,3.5-3.4,4.7l-1.4,1.8c-0.4,0.5-0.6,0.7-0.6,0.6c0.1-0.1,0,0-0.2,0.2
		c0.7-2.5,1.6-4.9,2.8-7.1c1.1-2.1,2.3-4.2,3.7-6.1c1.9-2.8,4-5.4,6.4-7.8c1-1.1,2.3-1.9,3.7-2.4c1-0.3,2,0.2,2.5,1
		c0.4,0.8,1.3,1.3,2.2,1.1c0.8-0.1,1.4-0.7,1.6-1.5c0.3-0.8,0.2-1.7-0.1-2.5c-0.4-0.9-1-1.7-1.8-2.2c-1-0.7-2.3-0.9-3.5-0.5
		c-2.6,0.6-4.9,2-6.8,3.9c-2.5,2.4-4.8,5-6.8,7.8c-1.9,2.6-3.6,5.4-5.2,8.3c-0.5,0.5-1.1,1-1.7,1.5c-1.1,1-2.2,2-3.3,3
		s-2,1.8-2.7,2.4c-1.3,1.1-2.4,2-3.3,2.7c-0.9,0.7-1.8,1.3-2.6,1.9s-1.7,1.2-2.5,1.7c-0.9,0.6-2,1.3-3.3,2.2
		c0.5-2.1,1.2-4.4,2.1-6.8c0.9-2.5,1-5.2,0.3-7.8c-0.8-2.8-2.5-4-5.1-3.5c-1.9,0.4-3.8,1.3-5.3,2.6c-2.1,1.6-3.9,3.5-5.6,5.5
		c-1.5,1.6-2.8,3.3-4,5.2l-4,5.4c0.7-2.7,1.8-6.5,3.4-11.3c1.6-4.8,3.3-9.8,5.2-14.9c1.9-5.2,3.8-10.2,5.8-15
		c1.9-4.8,3.6-8.7,5-11.7c0.3-0.7,0.6-1.5,1-2.2c0.3-0.5,0.5-1,0.7-1.5s0.2-1.1,0.1-1.6c-0.1-0.5-0.5-0.8-1-0.7h-0.1
		c-0.7,0.3-1.4,0.7-1.9,1.3c-1.1,1.3-2,2.6-2.8,4.1c-2.3,4.2-4.4,8.5-6.1,12.9c-2.1,5.2-4.1,10.6-6,16.2c-1.6,4.6-3,9-4.3,13.4
		c-0.2,0-0.3,0-0.5,0c-1.7,0.1-3.3,0.3-4.9,0.6c-1.1,0.2-2.1,0.4-3,0.6c-1,0.2-1.7,0.4-2.3,0.5c-1.6,0.2-3.1,1-4.3,2.2
		c-1,1.1-2,2.1-3.1,3c0.1-0.6,0.3-1.2,0.6-1.7c0.3-0.6,0.5-1.2,0.6-1.9c0.2-0.7,0.4-1.5,0.6-2.2c0.2-0.7,0.4-1.5,0.7-2.2
		c0.5-1.5,1-3.1,1.4-4.7c0.3-1.2-0.4-1.6-2.1-1.3c-0.7,0.1-1.4,1-2.2,2.6c-0.9,1.7-1.6,3.5-2.2,5.3c-0.7,1.9-1.3,3.8-1.8,5.7
		c-0.7,0.7-1.6,1.5-2.8,2.6c-0.5,0.4-0.9,0.8-1.3,1.2c-0.4,0.3-0.8,0.8-1.4,1.3c-0.7,0.7-1.6,1.4-2.7,2.3c-1.1,0.9-2.3,1.7-3.5,2.5
		s-2.5,1.5-3.7,2.2c-1.1,0.6-2.3,1-3.5,1.3c-1.3,0.4-2.7,0-3.6-1c-0.7-0.9-1-2.1-0.8-3.2s0.5-2.4,0.9-3.9c2.4-0.8,4.5-2,6.4-3.6
		c2-1.5,3.8-3.2,5.5-5c2.6-3,4.1-5.6,4.5-7.9c0.5-2.3-0.7-3.1-3.4-2.7c-1.8,0.4-3.5,1.3-5,2.5c-1.9,1.5-3.7,3.2-5.3,5
		c-1.6,1.9-3.1,3.9-4.5,6c-1.2,1.8-2.1,3.7-2.6,5.8c-0.5,1.8-0.8,3.6-1.1,5.4c-0.3,1.6,0.2,3.3,1.2,4.6c1.4,1.8,3.5,2.5,6.3,2
		c2.1-0.4,4.2-1.3,6.1-2.4c2.3-1.3,4.4-2.8,6.5-4.5c2.2-1.7,4.3-3.5,6.2-5.3c0.1-0.1,0.2-0.2,0.3-0.3c-0.3,1.3-0.6,2.6-0.9,3.9
		c-0.5,1.7-0.9,3.4-1.2,5c-0.1,0.3-0.3,0.8-0.5,1.7c-0.3,0.8-0.5,1.7-0.7,2.5s-0.2,1.5-0.2,2.3c0.1,0.7,0.4,1,0.9,0.9
		c0.8-0.1,1.6-0.5,2.2-1.1c0.5-0.6,0.9-1.3,1.2-2.1c0.3-0.8,0.6-1.7,0.8-2.7s0.6-1.9,1-2.9c0.6-1.6,1.4-3.2,2.3-4.7
		c0.8-1.4,1.7-2.8,2.7-4.2c0.6-0.8,1.2-1.6,1.8-2.3c0.5-0.5,1-0.9,1.6-1.3c0.6-0.3,1.3-0.6,1.9-0.7c0.7-0.2,1.7-0.4,2.8-0.6
		c0.7-0.1,1.4-0.2,2.3-0.3c0.8-0.1,1.7-0.2,2.5-0.4c0.8-0.2,1.7-0.4,2.5-0.7c-1.4,4.8-2.6,8.9-3.4,12.2c-0.2,0.9-0.5,1.9-0.8,3.1
		c-0.3,1-0.5,2.1-0.7,3.1c-0.1,0.8-0.1,1.5,0.2,2.3c0.2,0.6,0.8,0.8,1.6,0.6c0.6-0.1,1.3-0.9,2.2-2.4s2-3.3,3.3-5.5s2.8-4.6,4.4-7.1
		c1.7-2.6,3.5-5.1,5.6-7.4c3.1-3.4,5.5-5.3,7-5.6c0.8-0.2,1.6,0.2,1.9,1c0.4,1.1,0.5,2.2,0.4,3.3c-0.2,1.7-0.5,3.3-1,5
		c-0.6,2-1.3,3.9-2.2,5.8c-0.4,1-0.9,2-1.6,2.8c-0.3,0.2-1.2,0.8-2.5,1.6c-1.7,1.1-3.9,2.6-6.7,4.4c-2.8,1.9-5.5,3.9-8.3,6
		c-2.6,2-5.1,4.3-7.4,6.6c-1.9,1.8-3.3,4-4,6.4c-0.5,2.1-0.3,3.5,0.7,4.3c1.2,0.8,2.7,1,4.1,0.6c3.5-0.8,6.7-2.4,9.5-4.6
		c2.6-1.9,5-4.1,7.2-6.6c2-2.2,3.8-4.6,5.4-7.1c1.5-2.3,2.8-4.3,3.7-6s1.6-2.9,2-3.4c0.7-0.7,1.4-1.3,2.1-1.8c1.2-0.9,2.6-1.9,4.2-3
		c1.6-1.2,3.2-2.3,4.9-3.5s3.1-2.3,4.3-3.3c1.2-1.2,2.5-2.3,3.6-3.3c0.1-0.1,0.3-0.2,0.4-0.3c-0.1,0.4-0.3,0.8-0.3,1.1
		c-0.6,1.7-0.8,3.5-0.7,5.4c0.2,1.1,1.4,1.4,3.7,1c0.9-0.2,2-1,3.2-2.5c1.3-1.5,2.5-3.2,3.8-5.1s2.5-3.6,3.7-5.4
		c0.8-1.3,1.7-2.4,2.8-3.4c-0.4,1.4-0.5,2.9-0.4,4.4c0.1,1.3,0.4,2.6,1,3.8c0.5,1.1,1.3,1.9,2.3,2.5c1.2,0.6,2.6,0.8,3.9,0.5
		c2.2-0.4,4.7-1.7,7.6-4l4.5-4c0.2-0.2,0.3-0.4,0.5-0.6l0,0c-0.5,1.7-0.7,3.4-0.6,5.1c0.1,1.5,0.8,2.1,2.1,1.8
		c1.2-0.2,2.7-1.4,4.3-3.5c1.7-2.1,3.4-4.4,5.2-7s3.5-5.1,5.2-7.5c1.2-1.9,2.6-3.6,4.3-5c0.1,0.8,0,1.6-0.3,2.4
		c-0.2,1-0.6,2.2-0.9,3.6c-0.4,1.5-0.6,3-0.8,4.5c-0.2,1.8-0.3,3.7-0.3,5.5c0.1,1.6,0.5,3.2,1.2,4.6c0.7,1.3,2,1.8,3.9,1.5
		c0.8-0.2,1.7-0.4,2.4-0.8c1-0.4,1.9-1,2.6-1.8c1-0.9,1.9-1.8,3-2.8c1-1,2-2,2.9-3.1c0.9-1,1.7-1.9,2.2-2.6c0.1-0.1,0.2-0.2,0.3-0.4
		c-0.8,2.1-1.2,4.4-1.1,6.6c0.1,1.8,1.1,2.5,2.8,2.2c1.3-0.2,2.4-0.8,3.4-1.7c1.1-1,2.2-2.1,3.1-3.3c1-1.2,1.9-2.5,2.7-3.9
		s1.6-2.7,2.3-3.8l7.3-12.4c0.2-0.4,0.3-0.7,0.6-1.1c0.1-0.1,0.4-0.4,0.9-0.9c-0.2,0.9-0.8,2.8-1.6,5.7c-0.8,2.9-1.8,6.3-2.8,10.1
		c-0.9,3.2-1.8,6.6-2.7,10.2c-0.1,0.6-0.3,1.3-0.5,1.9c-0.3,1.2-0.6,2.3-0.8,3.5c-0.1,0.8-0.3,1.6-0.6,2.4l-0.1,0.4
		c-0.2,0.9-0.4,1.8-0.6,2.6c0,0.2-0.1,0.3-0.1,0.5c-0.1,1-0.1,2,0,3.1c0.1,2.3,1.2,4.4,2.9,6c0.1,0.1,0.2,0.2,0.3,0.3
		c4.7,3.5,11.2,2.7,16.2,0.3c4.4-2.2,8.2-5.2,11.3-9c3-3.8,5.8-7.8,8.4-11.9c4.1-6.2,8.4-12.4,10.5-19.5c0.3-0.8,0.4-1.6,0.3-2.4
		C777.7,355,777.6,354.7,777.5,354.4z M563.3,383.8c0.8-1.2,1.7-2.3,2.7-3.3c0.9-1,2-2,3.1-2.8c0.9-0.7,1.9-1.3,2.9-1.8
		c-0.4,1.2-1,2.3-1.8,3.3c-0.8,1.1-1.7,2.1-2.8,3c-1,0.9-2.1,1.8-3.2,2.6c-1.1,0.8-2.1,1.5-2.9,2.1
		C561.9,385.8,562.6,384.8,563.3,383.8z M613.3,406.1c-1.5,2.1-3.1,4.2-4.9,6.1c-1.7,1.8-3.5,3.6-5.4,5.1c-1.6,1.4-3.5,2.3-5.6,2.7
		c-1.6,0.3-2.3,0-2.1-0.8c0.3-1.2,0.9-2.3,1.8-3.1c1.2-1.5,2.6-2.8,4-4.1c1.4-1.3,2.8-2.5,4.3-3.6c0.5-0.3,1.3-0.9,2.4-1.8
		c1.1-0.8,2.4-1.7,3.6-2.6c1.3-0.9,2.5-1.7,3.6-2.4c1.1-0.7,1.9-1.2,2.3-1.4C616.1,402.1,614.8,404,613.3,406.1z M735.4,348.1
		c-1.8,3.2-3.7,6.7-5.9,10.4c-2.2,3.7-4.3,7.1-6.3,10.2s-3.4,4.6-4,4.8c-0.3,0.1-0.4-0.3-0.2-1.1c1.2-4.6,2.9-9,5.1-13.2
		c2.1-4.2,4.7-8.1,7.8-11.7c0.9-1.1,1.8-2.1,2.8-3.1s2.3-1.7,3.6-2C737.4,344.3,736.5,346.2,735.4,348.1L735.4,348.1z"/>
</g>
</svg>
